<svg width="31" height="31" viewBox="0 0 31 31" fill="none" xmlns="http://www.w3.org/2000/svg">
<path d="M30.5151 26.9958L25.8603 22.3458C25.0845 21.5708 23.9208 21.5708 23.2742 22.3458L21.464 20.5375C23.4035 18.3417 24.5673 15.5 24.5673 12.4C24.5673 5.55417 19.0073 0 12.2836 0C5.55996 0 0 5.55417 0 12.2708C0 18.9875 5.55996 24.5417 12.2836 24.5417C15.3869 24.5417 18.3608 23.3792 20.4296 21.4417L22.2398 23.25C21.5933 24.025 21.5933 25.1875 22.2398 25.8333L26.8947 30.4833C27.2826 30.8708 27.7998 31 28.317 31C28.8342 31 29.3514 30.8708 29.7393 30.4833L30.5151 29.7083C31.1616 28.9333 31.1616 27.6417 30.5151 26.9958ZM7.49948 2.45417L10.2148 4.77917L9.1804 6.84583C9.0511 6.975 9.0511 7.23333 9.0511 7.3625C9.0511 7.49167 9.3097 7.62083 9.439 7.75L12.6715 8.78333L11.7664 11.3667L9.9562 10.4625C9.8269 10.3333 9.5683 10.3333 9.439 10.3333C9.3097 10.3333 9.1804 10.5917 9.0511 10.7208L7.88738 14.2083H6.46507C6.20647 14.2083 6.07716 14.3375 5.94786 14.4667C5.81856 14.5958 5.81856 14.8542 5.81856 14.9833L6.33577 17.1792L5.81856 17.6958L3.74974 15.6292C3.62044 15.6292 3.36184 15.5 3.23253 15.5H1.81022C1.42231 14.4667 1.29301 13.4333 1.29301 12.2708C1.29301 8.00833 3.87904 4.2625 7.49948 2.45417ZM2.32742 16.7917H2.97393L5.43066 19.2458C5.43066 19.375 5.68926 19.375 5.81856 19.375C5.94786 19.375 6.20647 19.375 6.33577 19.2458L7.62878 17.9542C7.75808 17.6958 7.75808 17.4375 7.75808 17.3083L7.24088 15.5H8.40459C8.66319 15.5 8.92179 15.3708 9.0511 15.1125L10.0855 11.8833L12.025 12.7875C12.1543 12.9167 12.4129 12.9167 12.5422 12.9167C12.6715 12.7875 12.8008 12.6583 12.9301 12.5292L14.2231 8.65417C14.3525 8.26667 14.0938 8.00833 13.8352 7.87917L10.6027 6.71667L11.5078 4.77917C11.7664 4.52083 11.6371 4.2625 11.3785 4.00417L8.79249 1.80833C9.9562 1.55 11.1199 1.29167 12.2836 1.29167C17.585 1.29167 21.9812 5.0375 23.0156 10.075L19.7831 11.7542C19.5245 11.7542 19.3952 12.0125 19.3952 12.2708V13.3042L18.4901 14.2083H16.1627C15.9041 14.2083 15.6455 14.3375 15.6455 14.5958L14.3525 17.1792C14.2232 17.4375 14.2231 17.6958 14.4818 17.9542L15.7748 19.2458C15.9041 19.375 16.0334 19.375 16.292 19.375H17.0678L17.8436 21.7C16.1627 22.6042 14.3525 23.25 12.2836 23.25C7.88738 23.25 4.00834 20.5375 2.32742 16.7917ZM18.878 21.0542L18.1022 18.4708C17.9729 18.2125 17.7143 18.0833 17.4557 18.0833H16.4213L15.6455 17.3083L16.5506 15.5H18.7487C18.878 15.5 19.1366 15.3708 19.2659 15.3708L20.5589 14.0792C20.6882 13.95 20.6882 13.8208 20.6882 13.5625V12.6583L23.2742 11.3667C23.2742 11.625 23.2742 11.8833 23.2742 12.2708C23.2742 15.8875 21.5933 18.9875 18.878 21.0542ZM29.61 28.8042L28.8342 29.5792C28.5756 29.8375 28.1877 29.8375 27.9291 29.5792L23.2742 24.9292C23.0156 24.6708 23.0156 24.2833 23.2742 24.025L24.0501 23.25C24.1794 23.1208 24.3087 23.1208 24.5673 23.1208C24.8259 23.1208 24.9552 23.1208 25.0845 23.25L29.7393 27.9C29.7393 28.1583 29.7393 28.5458 29.61 28.8042Z" fill="#9B1C27"/>
</svg>
