<svg width="34" height="33" viewBox="0 0 34 33" fill="none" xmlns="http://www.w3.org/2000/svg">
<path d="M19.5424 29.0585C19.2789 29.1295 19.01 29.1929 18.7431 29.2478C18.045 29.39 17.5944 30.0713 17.737 30.7695C17.745 30.8094 17.755 30.8473 17.7664 30.8854C17.9569 31.5165 18.6006 31.9102 19.2592 31.7758C19.5777 31.7106 19.8986 31.6348 20.2133 31.5501C20.9015 31.365 21.3091 30.6569 21.1239 29.9687C20.9386 29.2796 20.2306 28.8732 19.5424 29.0585Z" fill="#9B1C27"/>
<path d="M10.5486 28.34C10.2994 28.2291 10.0508 28.1091 9.80967 27.983C9.17767 27.6535 8.39857 27.8983 8.069 28.5303C7.90633 28.8411 7.88348 29.1879 7.97748 29.4991C8.07453 29.8201 8.29533 30.1035 8.61566 30.2706C8.90354 30.4206 9.19942 30.564 9.49625 30.6963C10.1467 30.9867 10.9098 30.6952 11.2005 30.0447C11.4911 29.3938 11.1992 28.6312 10.5486 28.34Z" fill="#9B1C27"/>
<path d="M14.9854 29.4742C14.714 29.4524 14.4387 29.4216 14.1685 29.3837C13.4629 29.2831 12.81 29.7741 12.7098 30.4797C12.6826 30.6714 12.6992 30.8589 12.7516 31.0327C12.8922 31.4987 13.2924 31.8651 13.8062 31.9384C14.1277 31.9838 14.455 32.0203 14.7783 32.046C15.4888 32.1036 16.1109 31.5741 16.1681 30.864C16.2252 30.1535 15.696 29.5314 14.9854 29.4742Z" fill="#9B1C27"/>
<path d="M23.6981 27.1338C23.474 27.288 23.2415 27.4377 23.0074 27.579C22.4917 27.8897 22.2715 28.5043 22.4376 29.0554C22.4681 29.1564 22.5118 29.2554 22.5687 29.3502C22.9362 29.9605 23.7293 30.1565 24.3397 29.7891C24.6179 29.6212 24.8944 29.4427 25.1609 29.2594C25.7477 28.8554 25.8964 28.052 25.4923 27.4653C25.0885 26.878 24.2849 26.7298 23.6981 27.1338Z" fill="#9B1C27"/>
<path d="M28.77 23.6446C28.1921 23.2279 27.3857 23.3587 26.9689 23.9362C26.8097 24.1572 26.6412 24.3764 26.4687 24.5867C26.1857 24.9323 26.1122 25.3803 26.2319 25.778C26.3036 26.0148 26.4437 26.2341 26.6492 26.4026C27.2005 26.854 28.0133 26.773 28.4648 26.2217C28.6707 25.9707 28.8718 25.7093 29.0615 25.4458C29.4783 24.8679 29.3479 24.0617 28.77 23.6446Z" fill="#9B1C27"/>
<path d="M30.576 18.9451C29.8921 18.7453 29.1757 19.1382 28.9762 19.8222C28.8995 20.0842 28.8141 20.3473 28.7227 20.6039C28.6256 20.8741 28.6242 21.1558 28.7014 21.4109C28.8155 21.7894 29.1012 22.1103 29.5013 22.2537C30.1722 22.4943 30.9106 22.1458 31.1515 21.4752C31.2609 21.1694 31.3626 20.8562 31.4531 20.5446C31.6526 19.8609 31.2598 19.1442 30.576 18.9451Z" fill="#9B1C27"/>
<path d="M32.9968 10.5388L31.3012 11.0656C30.0144 7.12217 27.3049 3.88165 23.6377 1.91356C23.2686 1.71531 22.8941 1.53314 22.5151 1.36574C22.5123 1.36443 22.5101 1.36333 22.5076 1.36166C22.4917 1.35497 22.4751 1.34871 22.4597 1.34187C19.1162 -0.121099 15.4162 -0.39843 11.8695 0.562043C11.8416 0.567499 11.8138 0.572738 11.7863 0.580522C11.6678 0.612824 11.5483 0.647818 11.4304 0.68303C11.2368 0.741522 11.042 0.804526 10.851 0.870075C10.8283 0.87786 10.807 0.887536 10.7851 0.896266C7.61903 1.993 4.92291 4.01508 2.99949 6.7168C2.99265 6.72611 2.98494 6.73411 2.97847 6.74335C2.79048 7.00737 2.60838 7.28114 2.43639 7.5573C2.42562 7.57498 2.41668 7.59339 2.40642 7.61165C2.23487 7.88985 2.07001 8.17446 1.91389 8.46474C0.319742 11.4356 -0.288393 14.7551 0.126513 18.034C0.127458 18.0415 0.128331 18.0485 0.128986 18.0559C0.129641 18.0612 0.130805 18.0666 0.132042 18.0721C0.244807 18.948 0.430034 19.8211 0.690123 20.6835C1.37312 22.9479 2.51278 24.984 4.07724 26.7356C4.5518 27.2669 5.3675 27.3127 5.89903 26.8381C6.43026 26.3634 6.47661 25.5475 6.00168 25.0164C5.22069 24.1425 4.56708 23.1825 4.04392 22.1482C4.03832 22.1355 4.03337 22.1225 4.02726 22.1103C3.90424 21.8663 3.78732 21.6161 3.67907 21.3658C3.67849 21.3638 3.67783 21.3627 3.67696 21.3611C3.47995 20.9003 3.30818 20.4259 3.16093 19.9385C1.46995 14.3318 3.62647 8.46496 8.10167 5.18471C8.16787 5.13655 8.234 5.08795 8.30086 5.04124C9.44977 4.23093 10.7456 3.58838 12.1639 3.16075C13.5911 2.73049 15.0344 2.54978 16.448 2.59212C16.4708 2.59314 16.493 2.59379 16.5157 2.59445C16.6019 2.59706 16.6879 2.60165 16.7738 2.60645C16.8085 2.60827 16.8431 2.61016 16.8777 2.61234C21.2855 2.88807 25.3501 5.33618 27.6319 9.18222C27.6331 9.1844 27.634 9.18688 27.6355 9.18906C27.6694 9.24617 27.7024 9.30321 27.7356 9.36097C27.7395 9.36745 27.7438 9.37319 27.7476 9.37981C28.1842 10.1454 28.5515 10.9646 28.8372 11.8316L27.1416 12.3588C26.6707 12.5051 26.6243 12.8439 27.0377 13.1118L30.7276 15.5018C31.1412 15.7699 31.6346 15.6164 31.8233 15.1616L33.509 11.1006C33.6975 10.6455 33.4674 10.3925 32.9968 10.5388Z" fill="#9B1C27"/>
<path d="M11.2975 16.0602C10.054 16.9814 9.20589 17.7805 8.75381 18.4574C8.30217 19.1342 8.03124 19.8568 7.94226 20.6251H15.722V18.5114H11.6728C11.9106 18.2777 12.1174 18.0891 12.2936 17.945C12.4699 17.8002 12.8187 17.548 13.3409 17.1871C14.2193 16.5675 14.8253 15.9987 15.1586 15.4807C15.4916 14.9632 15.6583 14.4198 15.6583 13.8511C15.6583 13.3164 15.513 12.8335 15.2223 12.4024C14.9313 11.9718 14.5321 11.6523 14.0251 11.4443C13.5181 11.2366 12.8081 11.1323 11.8954 11.1323C11.0213 11.1323 10.3371 11.2418 9.8424 11.4607C9.34827 11.6793 8.96494 11.9932 8.6935 12.4024C8.42177 12.8125 8.23523 13.3822 8.13316 14.1119L10.7307 14.3219C10.8028 13.796 10.9441 13.4287 11.154 13.2208C11.3643 13.0128 11.6344 12.9087 11.966 12.9087C12.2841 12.9087 12.5484 13.0097 12.7584 13.2114C12.9683 13.4126 13.0735 13.6558 13.0735 13.9403C13.0735 14.2036 12.9675 14.4815 12.7551 14.7745C12.5429 15.0673 12.0569 15.4961 11.2975 16.0602Z" fill="#9B1C27"/>
<path d="M23.5463 20.6251V18.8806H24.7175V16.8684H23.5463V11.1323H21.2862L16.5624 16.7478V18.8806H21.2862V20.6251H23.5463ZM18.7904 16.8684L21.2862 13.9317V16.8684H18.7904Z" fill="#9B1C27"/>
</svg>
