<svg width="28" height="19" viewBox="0 0 28 19" fill="none" xmlns="http://www.w3.org/2000/svg">
<path d="M17.5625 0V2.0625H24.3542L15.5 10.9167L11.0728 6.48966C10.9771 6.39386 10.8635 6.31786 10.7384 6.26601C10.6133 6.21415 10.4792 6.18746 10.3438 6.18746C10.2083 6.18746 10.0742 6.21415 9.94913 6.26601C9.82403 6.31786 9.71037 6.39386 9.61466 6.48966L-1 17.1042L0.458291 18.5625L10.3438 8.67704L14.7709 13.1041C14.8666 13.1999 14.9803 13.2759 15.1054 13.3277C15.2305 13.3796 15.3646 13.4063 15.5 13.4063C15.6354 13.4063 15.7695 13.3796 15.8946 13.3277C16.0197 13.2759 16.1334 13.1999 16.2291 13.1041L25.8125 3.52079V10.3125H27.875V0H17.5625Z" fill="#9B1C27"/>
</svg>
