<svg width="32" height="32" viewBox="0 0 32 32" fill="none" xmlns="http://www.w3.org/2000/svg">
<g clip-path="url(#clip0_14_183)">
<path fill-rule="evenodd" clip-rule="evenodd" d="M16 0.25L20.4445 4.282L26.4427 4.05088L27.2551 9.99933L32 13.6758L28.8 18.7531L30.0711 24.6215L24.3556 26.4527L21.5573 31.7629L16 29.4927L10.4427 31.7629L7.64445 26.4527L1.92888 24.6215L3.2 18.7531L0 13.6758L4.74488 9.99933L5.55733 4.05088L11.5556 4.282L16 0.25ZM16 2.65L12.7485 5.59933L12.2116 6.08645L11.4862 6.05978L7.09867 5.89088L6.50488 10.2393L6.40712 10.9593L5.83288 11.402L2.36445 14.0918L4.704 17.8073L5.09155 18.4189L4.93688 19.13L4.00888 23.4198L8.18845 24.7602L8.88 24.9824L9.21955 25.6242L11.264 29.5069L15.328 27.8482L16 27.5727L16.672 27.8482L20.736 29.5069L22.7822 25.6242L23.12 24.9824L23.8116 24.7602L27.9911 23.4198L27.0631 19.13L26.9085 18.4189L27.296 17.8073L29.6373 14.0918L26.1671 11.402L25.5929 10.9593L25.4951 10.2393L24.8996 5.89088L20.5156 6.05978L19.7885 6.08645L19.2516 5.59933L16 2.65ZM21.6843 12.8747L22.7598 14.2916L13.3998 21.3956L9.14915 17.1449L10.406 15.888L13.5598 19.0418L21.6843 12.8747Z" fill="#9B1C27"/>
</g>
<defs>
<clipPath id="clip0_14_183">
<rect width="32" height="32" fill="white"/>
</clipPath>
</defs>
</svg>
