<svg width="33" height="33" viewBox="0 0 33 33" fill="none" xmlns="http://www.w3.org/2000/svg">
<path d="M13.0625 17.05L15.0268 19.25L19.9375 13.75" stroke="#9B1C27" stroke-width="2" stroke-linecap="round" stroke-linejoin="round"/>
<path d="M4.125 14.323C4.125 9.92622 4.125 7.72788 4.64409 6.98831C5.16317 6.24874 7.23019 5.54119 11.3643 4.12609L12.1519 3.85649C14.3069 3.11883 15.3843 2.75 16.5 2.75C17.6157 2.75 18.6931 3.11883 20.8482 3.85649L21.6358 4.12609C25.7698 5.54119 27.8369 6.24874 28.3559 6.98831C28.875 7.72788 28.875 9.92622 28.875 14.323C28.875 14.9869 28.875 15.7072 28.875 16.4882C28.875 19.9324 27.7244 22.589 26.125 24.6181M4.39016 19.25C5.56911 25.1603 10.4176 28.2052 13.6105 29.6C14.6025 30.0333 15.0985 30.25 16.5 30.25C17.9015 30.25 18.3975 30.0333 19.3894 29.6C20.1845 29.2527 21.0821 28.8032 22 28.2326" stroke="#9B1C27" stroke-width="2" stroke-linecap="round"/>
</svg>
