<svg width="22" height="22" viewBox="0 0 22 22" fill="none" xmlns="http://www.w3.org/2000/svg">
<g clip-path="url(#clip0_26_114)">
<path fill-rule="evenodd" clip-rule="evenodd" d="M11 6.1875C9.86081 6.1875 8.9375 7.11081 8.9375 8.25C8.9375 9.38919 9.86081 10.3125 11 10.3125C12.1392 10.3125 13.0625 9.38919 13.0625 8.25C13.0625 7.11081 12.1392 6.1875 11 6.1875ZM11 11.6875C9.10181 11.6875 7.5625 10.1489 7.5625 8.25C7.5625 6.35112 9.10181 4.8125 11 4.8125C12.8982 4.8125 14.4375 6.35112 14.4375 8.25C14.4375 10.1489 12.8982 11.6875 11 11.6875ZM11 0C6.44394 0 2.75 3.69394 2.75 8.25C2.75 11.6999 9.62844 22.0076 11 22C12.3503 22.0076 19.25 11.6531 19.25 8.25C19.25 3.69394 15.5561 0 11 0Z" fill="#9B1C27"/>
</g>
<defs>
<clipPath id="clip0_26_114">
<rect width="22" height="22" fill="white"/>
</clipPath>
</defs>
</svg>
