<?xml version="1.0" encoding="UTF-8" standalone="no"?>
<!DOCTYPE svg PUBLIC "-//W3C//DTD SVG 1.1//EN" "http://www.w3.org/Graphics/SVG/1.1/DTD/svg11.dtd">
<svg width="100%" height="100%" viewBox="0 0 4129 859" version="1.1" xmlns="http://www.w3.org/2000/svg" xmlns:xlink="http://www.w3.org/1999/xlink" xml:space="preserve" xmlns:serif="http://www.serif.com/" style="fill-rule:evenodd;clip-rule:evenodd;stroke-linejoin:round;stroke-miterlimit:2;">
    <g transform="matrix(1,0,0,1,-11202.863836,-1980.612274)">
        <g transform="matrix(1,0,0,1,10865.839574,4931)">
            <g transform="matrix(1,0,0,1,-188.319194,-172.685044)">
                <g>
                    <g transform="matrix(1.383609,0,0,1.383609,-2419.018592,-5358.701105)">
                        <path d="M2438.36,1865.41L2128.03,1865.41L2128.03,2131.41L2221.13,2131.41L2221.13,1954.08L2438.36,1954.08C2510.87,1954.08 2575.25,1988.9 2615.7,2042.74C2635.06,2068.52 2648.93,2098.65 2655.58,2131.41C2658.48,2145.73 2660.01,2160.56 2660.01,2175.74C2660.01,2190.92 2658.48,2205.75 2655.58,2220.07C2652.45,2235.48 2647.72,2250.33 2641.57,2264.4C2647.72,2278.48 2652.45,2293.32 2655.58,2308.74C2658.48,2323.06 2660.01,2337.88 2660.01,2353.06C2660.01,2368.22 2658.48,2383.04 2655.59,2397.35C2681.54,2371.91 2703.04,2341.95 2718.82,2308.74C2731.9,2281.17 2741.06,2251.38 2745.54,2220.07C2747.61,2205.59 2748.68,2190.79 2748.68,2175.74C2748.68,2160.68 2747.61,2145.89 2745.54,2131.41C2741.06,2100.1 2731.9,2070.3 2718.82,2042.74C2703.03,2009.5 2681.51,1979.52 2655.54,1954.08C2599.57,1899.23 2522.91,1865.41 2438.36,1865.41Z" style="fill:rgb(155,28,39);"/>
                        <path d="M2563.78,2131.41C2545.52,2079.75 2496.27,2042.74 2438.36,2042.74L2314.22,2042.74L2314.22,2131.41L2438.36,2131.41C2462.84,2131.41 2482.68,2151.26 2482.68,2175.73C2482.68,2199.92 2463.32,2219.59 2439.25,2220.07L2128.03,2220.07L2128.03,2486.07L2438.36,2486.07L2438.36,2486.06C2496.26,2486.06 2545.52,2449.05 2563.78,2397.4C2568.68,2383.53 2571.34,2368.61 2571.34,2353.06C2571.34,2337.52 2568.69,2322.6 2563.78,2308.74C2557.94,2292.21 2548.94,2277.2 2537.48,2264.4C2548.93,2251.61 2557.94,2236.59 2563.78,2220.07C2568.69,2206.2 2571.34,2191.28 2571.34,2175.73C2571.34,2160.19 2568.69,2145.27 2563.78,2131.41ZM2221.17,2308.74L2437.84,2308.74L2437.97,2308.73L2438.36,2308.73L2438.87,2308.74C2463.11,2309 2482.68,2328.74 2482.68,2353.06C2482.68,2377.54 2462.84,2397.4 2438.36,2397.4L2221.17,2397.4L2221.17,2308.74ZM2424.84,2043.42C2424.03,2043.5 2423.22,2043.59 2422.42,2043.68C2423.22,2043.59 2424.03,2043.5 2424.84,2043.42Z" style="fill:rgb(10,48,79);"/>
                    </g>
                    <g transform="matrix(34.732098,0,0,34.732098,-45225.289434,-93461.778953)">
                        <path d="M1352.123,2622.223C1352.611,2622.359 1352.995,2622.605 1353.275,2622.961C1353.555,2623.317 1353.695,2623.767 1353.695,2624.311C1353.695,2625.039 1353.421,2625.599 1352.873,2625.991C1352.325,2626.383 1351.527,2626.579 1350.479,2626.579L1346.471,2626.579L1346.471,2618.179L1350.239,2618.179C1351.199,2618.179 1351.941,2618.371 1352.465,2618.755C1352.989,2619.139 1353.251,2619.671 1353.251,2620.351C1353.251,2620.791 1353.149,2621.171 1352.945,2621.491C1352.741,2621.811 1352.467,2622.055 1352.123,2622.223ZM1347.671,2619.151L1347.671,2621.839L1350.131,2621.839C1350.747,2621.839 1351.221,2621.725 1351.553,2621.497C1351.885,2621.269 1352.051,2620.935 1352.051,2620.495C1352.051,2620.055 1351.885,2619.721 1351.553,2619.493C1351.221,2619.265 1350.747,2619.151 1350.131,2619.151L1347.671,2619.151ZM1350.431,2625.607C1351.111,2625.607 1351.623,2625.495 1351.967,2625.271C1352.311,2625.047 1352.483,2624.695 1352.483,2624.215C1352.483,2623.279 1351.799,2622.811 1350.431,2622.811L1347.671,2622.811L1347.671,2625.607L1350.431,2625.607Z" style="fill:rgb(31,41,55);fill-rule:nonzero;"/>
                        <path d="M1355.555,2618.179L1359.095,2618.179C1359.983,2618.179 1360.771,2618.355 1361.459,2618.707C1362.147,2619.059 1362.681,2619.553 1363.061,2620.189C1363.441,2620.825 1363.631,2621.555 1363.631,2622.379C1363.631,2623.203 1363.441,2623.933 1363.061,2624.569C1362.681,2625.205 1362.147,2625.699 1361.459,2626.051C1360.771,2626.403 1359.983,2626.579 1359.095,2626.579L1355.555,2626.579L1355.555,2618.179ZM1359.023,2625.535C1359.703,2625.535 1360.301,2625.403 1360.817,2625.139C1361.333,2624.875 1361.731,2624.505 1362.011,2624.029C1362.291,2623.553 1362.431,2623.003 1362.431,2622.379C1362.431,2621.755 1362.291,2621.205 1362.011,2620.729C1361.731,2620.253 1361.333,2619.883 1360.817,2619.619C1360.301,2619.355 1359.703,2619.223 1359.023,2619.223L1356.755,2619.223L1356.755,2625.535L1359.023,2625.535Z" style="fill:rgb(31,41,55);fill-rule:nonzero;"/>
                        <path d="M1380.563,2618.179L1377.755,2626.579L1376.495,2626.579L1374.203,2619.871L1371.911,2626.579L1370.627,2626.579L1367.819,2618.179L1369.055,2618.179L1371.323,2625.007L1373.687,2618.179L1374.791,2618.179L1377.107,2625.043L1379.423,2618.179L1380.563,2618.179Z" style="fill:rgb(31,41,55);fill-rule:nonzero;"/>
                        <path d="M1387.127,2623.435C1387.127,2623.523 1387.119,2623.639 1387.103,2623.783L1381.943,2623.783C1382.015,2624.343 1382.261,2624.793 1382.681,2625.133C1383.101,2625.473 1383.623,2625.643 1384.247,2625.643C1385.007,2625.643 1385.619,2625.387 1386.083,2624.875L1386.719,2625.619C1386.431,2625.955 1386.073,2626.211 1385.645,2626.387C1385.217,2626.563 1384.739,2626.651 1384.211,2626.651C1383.539,2626.651 1382.943,2626.513 1382.423,2626.237C1381.903,2625.961 1381.501,2625.575 1381.217,2625.079C1380.933,2624.583 1380.791,2624.023 1380.791,2623.399C1380.791,2622.783 1380.929,2622.227 1381.205,2621.731C1381.481,2621.235 1381.861,2620.849 1382.345,2620.573C1382.829,2620.297 1383.375,2620.159 1383.983,2620.159C1384.591,2620.159 1385.133,2620.297 1385.609,2620.573C1386.085,2620.849 1386.457,2621.235 1386.725,2621.731C1386.993,2622.227 1387.127,2622.795 1387.127,2623.435ZM1383.983,2621.131C1383.431,2621.131 1382.969,2621.299 1382.597,2621.635C1382.225,2621.971 1382.007,2622.411 1381.943,2622.955L1386.023,2622.955C1385.959,2622.419 1385.741,2621.981 1385.369,2621.641C1384.997,2621.301 1384.535,2621.131 1383.983,2621.131Z" style="fill:rgb(31,41,55);fill-rule:nonzero;"/>
                        <path d="M1392.095,2620.159C1392.711,2620.159 1393.263,2620.295 1393.751,2620.567C1394.239,2620.839 1394.621,2621.219 1394.897,2621.707C1395.173,2622.195 1395.311,2622.759 1395.311,2623.399C1395.311,2624.039 1395.173,2624.605 1394.897,2625.097C1394.621,2625.589 1394.239,2625.971 1393.751,2626.243C1393.263,2626.515 1392.711,2626.651 1392.095,2626.651C1391.623,2626.651 1391.191,2626.559 1390.799,2626.375C1390.407,2626.191 1390.083,2625.923 1389.827,2625.571L1389.827,2626.579L1388.723,2626.579L1388.723,2617.675L1389.875,2617.675L1389.875,2621.179C1390.131,2620.843 1390.451,2620.589 1390.835,2620.417C1391.219,2620.245 1391.639,2620.159 1392.095,2620.159ZM1391.999,2625.643C1392.407,2625.643 1392.773,2625.549 1393.097,2625.361C1393.421,2625.173 1393.677,2624.909 1393.865,2624.569C1394.053,2624.229 1394.147,2623.839 1394.147,2623.399C1394.147,2622.959 1394.053,2622.569 1393.865,2622.229C1393.677,2621.889 1393.421,2621.627 1393.097,2621.443C1392.773,2621.259 1392.407,2621.167 1391.999,2621.167C1391.599,2621.167 1391.235,2621.259 1390.907,2621.443C1390.579,2621.627 1390.323,2621.889 1390.139,2622.229C1389.955,2622.569 1389.863,2622.959 1389.863,2623.399C1389.863,2623.839 1389.955,2624.229 1390.139,2624.569C1390.323,2624.909 1390.579,2625.173 1390.907,2625.361C1391.235,2625.549 1391.599,2625.643 1391.999,2625.643Z" style="fill:rgb(31,41,55);fill-rule:nonzero;"/>
                        <path d="M1402.907,2617.675L1402.907,2626.579L1401.803,2626.579L1401.803,2625.571C1401.547,2625.923 1401.223,2626.191 1400.831,2626.375C1400.439,2626.559 1400.007,2626.651 1399.535,2626.651C1398.919,2626.651 1398.367,2626.515 1397.879,2626.243C1397.391,2625.971 1397.009,2625.589 1396.733,2625.097C1396.457,2624.605 1396.319,2624.039 1396.319,2623.399C1396.319,2622.759 1396.457,2622.195 1396.733,2621.707C1397.009,2621.219 1397.391,2620.839 1397.879,2620.567C1398.367,2620.295 1398.919,2620.159 1399.535,2620.159C1399.991,2620.159 1400.411,2620.245 1400.795,2620.417C1401.179,2620.589 1401.499,2620.843 1401.755,2621.179L1401.755,2617.675L1402.907,2617.675ZM1399.631,2625.643C1400.031,2625.643 1400.395,2625.549 1400.723,2625.361C1401.051,2625.173 1401.307,2624.909 1401.491,2624.569C1401.675,2624.229 1401.767,2623.839 1401.767,2623.399C1401.767,2622.959 1401.675,2622.569 1401.491,2622.229C1401.307,2621.889 1401.051,2621.627 1400.723,2621.443C1400.395,2621.259 1400.031,2621.167 1399.631,2621.167C1399.223,2621.167 1398.857,2621.259 1398.533,2621.443C1398.209,2621.627 1397.953,2621.889 1397.765,2622.229C1397.577,2622.569 1397.483,2622.959 1397.483,2623.399C1397.483,2623.839 1397.577,2624.229 1397.765,2624.569C1397.953,2624.909 1398.209,2625.173 1398.533,2625.361C1398.857,2625.549 1399.223,2625.643 1399.631,2625.643Z" style="fill:rgb(31,41,55);fill-rule:nonzero;"/>
                        <path d="M1410.839,2623.435C1410.839,2623.523 1410.831,2623.639 1410.815,2623.783L1405.655,2623.783C1405.727,2624.343 1405.973,2624.793 1406.393,2625.133C1406.813,2625.473 1407.335,2625.643 1407.959,2625.643C1408.719,2625.643 1409.331,2625.387 1409.795,2624.875L1410.431,2625.619C1410.143,2625.955 1409.785,2626.211 1409.357,2626.387C1408.929,2626.563 1408.451,2626.651 1407.923,2626.651C1407.251,2626.651 1406.655,2626.513 1406.135,2626.237C1405.615,2625.961 1405.213,2625.575 1404.929,2625.079C1404.645,2624.583 1404.503,2624.023 1404.503,2623.399C1404.503,2622.783 1404.641,2622.227 1404.917,2621.731C1405.193,2621.235 1405.573,2620.849 1406.057,2620.573C1406.541,2620.297 1407.087,2620.159 1407.695,2620.159C1408.303,2620.159 1408.845,2620.297 1409.321,2620.573C1409.797,2620.849 1410.169,2621.235 1410.437,2621.731C1410.705,2622.227 1410.839,2622.795 1410.839,2623.435ZM1407.695,2621.131C1407.143,2621.131 1406.681,2621.299 1406.309,2621.635C1405.937,2621.971 1405.719,2622.411 1405.655,2622.955L1409.735,2622.955C1409.671,2622.419 1409.453,2621.981 1409.081,2621.641C1408.709,2621.301 1408.247,2621.131 1407.695,2621.131Z" style="fill:rgb(31,41,55);fill-rule:nonzero;"/>
                        <path d="M1414.259,2626.651C1413.739,2626.651 1413.239,2626.581 1412.759,2626.441C1412.279,2626.301 1411.903,2626.123 1411.631,2625.907L1412.111,2624.995C1412.391,2625.195 1412.731,2625.355 1413.131,2625.475C1413.531,2625.595 1413.935,2625.655 1414.343,2625.655C1415.351,2625.655 1415.855,2625.367 1415.855,2624.791C1415.855,2624.599 1415.787,2624.447 1415.651,2624.335C1415.515,2624.223 1415.345,2624.141 1415.141,2624.089C1414.937,2624.037 1414.647,2623.979 1414.271,2623.915C1413.759,2623.835 1413.341,2623.743 1413.017,2623.639C1412.693,2623.535 1412.415,2623.359 1412.183,2623.111C1411.951,2622.863 1411.835,2622.515 1411.835,2622.067C1411.835,2621.491 1412.075,2621.029 1412.555,2620.681C1413.035,2620.333 1413.679,2620.159 1414.487,2620.159C1414.911,2620.159 1415.335,2620.211 1415.759,2620.315C1416.183,2620.419 1416.531,2620.559 1416.803,2620.735L1416.311,2621.647C1415.791,2621.311 1415.179,2621.143 1414.475,2621.143C1413.987,2621.143 1413.615,2621.223 1413.359,2621.383C1413.103,2621.543 1412.975,2621.755 1412.975,2622.019C1412.975,2622.227 1413.047,2622.391 1413.191,2622.511C1413.335,2622.631 1413.513,2622.719 1413.725,2622.775C1413.937,2622.831 1414.235,2622.895 1414.619,2622.967C1415.131,2623.055 1415.545,2623.149 1415.861,2623.249C1416.177,2623.349 1416.447,2623.519 1416.671,2623.759C1416.895,2623.999 1417.007,2624.335 1417.007,2624.767C1417.007,2625.343 1416.761,2625.801 1416.269,2626.141C1415.777,2626.481 1415.107,2626.651 1414.259,2626.651Z" style="fill:rgb(31,41,55);fill-rule:nonzero;"/>
                        <path d="M1418.447,2620.219L1419.599,2620.219L1419.599,2626.579L1418.447,2626.579L1418.447,2620.219ZM1419.023,2618.995C1418.799,2618.995 1418.613,2618.923 1418.465,2618.779C1418.317,2618.635 1418.243,2618.459 1418.243,2618.251C1418.243,2618.043 1418.317,2617.865 1418.465,2617.717C1418.613,2617.569 1418.799,2617.495 1419.023,2617.495C1419.247,2617.495 1419.433,2617.565 1419.581,2617.705C1419.729,2617.845 1419.803,2618.019 1419.803,2618.227C1419.803,2618.443 1419.729,2618.625 1419.581,2618.773C1419.433,2618.921 1419.247,2618.995 1419.023,2618.995Z" style="fill:rgb(31,41,55);fill-rule:nonzero;"/>
                        <path d="M1427.879,2620.219L1427.879,2625.715C1427.879,2626.827 1427.603,2627.649 1427.051,2628.181C1426.499,2628.713 1425.675,2628.979 1424.579,2628.979C1423.979,2628.979 1423.407,2628.897 1422.863,2628.733C1422.319,2628.569 1421.879,2628.335 1421.543,2628.031L1422.095,2627.143C1422.391,2627.399 1422.757,2627.601 1423.193,2627.749C1423.629,2627.897 1424.079,2627.971 1424.543,2627.971C1425.287,2627.971 1425.837,2627.795 1426.193,2627.443C1426.549,2627.091 1426.727,2626.555 1426.727,2625.835L1426.727,2625.331C1426.455,2625.659 1426.121,2625.905 1425.725,2626.069C1425.329,2626.233 1424.899,2626.315 1424.435,2626.315C1423.827,2626.315 1423.277,2626.185 1422.785,2625.925C1422.293,2625.665 1421.907,2625.301 1421.627,2624.833C1421.347,2624.365 1421.207,2623.831 1421.207,2623.231C1421.207,2622.631 1421.347,2622.097 1421.627,2621.629C1421.907,2621.161 1422.293,2620.799 1422.785,2620.543C1423.277,2620.287 1423.827,2620.159 1424.435,2620.159C1424.915,2620.159 1425.361,2620.247 1425.773,2620.423C1426.185,2620.599 1426.523,2620.859 1426.787,2621.203L1426.787,2620.219L1427.879,2620.219ZM1424.567,2625.307C1424.983,2625.307 1425.357,2625.219 1425.689,2625.043C1426.021,2624.867 1426.281,2624.621 1426.469,2624.305C1426.657,2623.989 1426.751,2623.631 1426.751,2623.231C1426.751,2622.615 1426.547,2622.117 1426.139,2621.737C1425.731,2621.357 1425.207,2621.167 1424.567,2621.167C1423.919,2621.167 1423.391,2621.357 1422.983,2621.737C1422.575,2622.117 1422.371,2622.615 1422.371,2623.231C1422.371,2623.631 1422.465,2623.989 1422.653,2624.305C1422.841,2624.621 1423.101,2624.867 1423.433,2625.043C1423.765,2625.219 1424.143,2625.307 1424.567,2625.307Z" style="fill:rgb(31,41,55);fill-rule:nonzero;"/>
                        <path d="M1433.471,2620.159C1434.279,2620.159 1434.921,2620.393 1435.397,2620.861C1435.873,2621.329 1436.111,2622.015 1436.111,2622.919L1436.111,2626.579L1434.959,2626.579L1434.959,2623.051C1434.959,2622.435 1434.811,2621.971 1434.515,2621.659C1434.219,2621.347 1433.795,2621.191 1433.243,2621.191C1432.619,2621.191 1432.127,2621.373 1431.767,2621.737C1431.407,2622.101 1431.227,2622.623 1431.227,2623.303L1431.227,2626.579L1430.075,2626.579L1430.075,2620.219L1431.179,2620.219L1431.179,2621.179C1431.411,2620.851 1431.725,2620.599 1432.121,2620.423C1432.517,2620.247 1432.967,2620.159 1433.471,2620.159Z" style="fill:rgb(31,41,55);fill-rule:nonzero;"/>
                    </g>
                </g>
            </g>
        </g>
    </g>
</svg>
