<?xml version="1.0" encoding="UTF-8" standalone="no"?>
<!DOCTYPE svg PUBLIC "-//W3C//DTD SVG 1.1//EN" "http://www.w3.org/Graphics/SVG/1.1/DTD/svg11.dtd">
<svg width="100%" height="100%" viewBox="0 0 4152 904" version="1.1" xmlns="http://www.w3.org/2000/svg" xmlns:xlink="http://www.w3.org/1999/xlink" xml:space="preserve" xmlns:serif="http://www.serif.com/" style="fill-rule:evenodd;clip-rule:evenodd;stroke-linejoin:round;stroke-miterlimit:2;">
    <g transform="matrix(1,0,0,1,-5930.504169,-1958.032176)">
        <g transform="matrix(1,0,0,1,5616.059632,4931)">
            <g transform="matrix(1,0,0,1,-188.319194,-172.685044)">
                <g>
                    <g transform="matrix(1.456371,0,0,1.456371,-2596.437083,-5517.011321)">
                        <path d="M2438.36,1865.41L2128.03,1865.41L2128.03,2131.41L2221.13,2131.41L2221.13,1954.08L2438.36,1954.08C2510.87,1954.08 2575.25,1988.9 2615.7,2042.74C2635.06,2068.52 2648.93,2098.65 2655.58,2131.41C2658.48,2145.73 2660.01,2160.56 2660.01,2175.74C2660.01,2190.92 2658.48,2205.75 2655.58,2220.07C2652.45,2235.48 2647.72,2250.33 2641.57,2264.4C2647.72,2278.48 2652.45,2293.32 2655.58,2308.74C2658.48,2323.06 2660.01,2337.88 2660.01,2353.06C2660.01,2368.22 2658.48,2383.04 2655.59,2397.35C2681.54,2371.91 2703.04,2341.95 2718.82,2308.74C2731.9,2281.17 2741.06,2251.38 2745.54,2220.07C2747.61,2205.59 2748.68,2190.79 2748.68,2175.74C2748.68,2160.68 2747.61,2145.89 2745.54,2131.41C2741.06,2100.1 2731.9,2070.3 2718.82,2042.74C2703.03,2009.5 2681.51,1979.52 2655.54,1954.08C2599.57,1899.23 2522.91,1865.41 2438.36,1865.41Z" style="fill:rgb(155,28,39);"/>
                        <path d="M2563.78,2131.41C2545.52,2079.75 2496.27,2042.74 2438.36,2042.74L2314.22,2042.74L2314.22,2131.41L2438.36,2131.41C2462.84,2131.41 2482.68,2151.26 2482.68,2175.73C2482.68,2199.92 2463.32,2219.59 2439.25,2220.07L2128.03,2220.07L2128.03,2486.07L2438.36,2486.07L2438.36,2486.06C2496.26,2486.06 2545.52,2449.05 2563.78,2397.4C2568.68,2383.53 2571.34,2368.61 2571.34,2353.06C2571.34,2337.52 2568.69,2322.6 2563.78,2308.74C2557.94,2292.21 2548.94,2277.2 2537.48,2264.4C2548.93,2251.61 2557.94,2236.59 2563.78,2220.07C2568.69,2206.2 2571.34,2191.28 2571.34,2175.73C2571.34,2160.19 2568.69,2145.27 2563.78,2131.41ZM2221.17,2308.74L2437.84,2308.74L2437.97,2308.73L2438.36,2308.73L2438.87,2308.74C2463.11,2309 2482.68,2328.74 2482.68,2353.06C2482.68,2377.54 2462.84,2397.4 2438.36,2397.4L2221.17,2397.4L2221.17,2308.74ZM2424.84,2043.42C2424.03,2043.5 2423.22,2043.59 2422.42,2043.68C2423.22,2043.59 2424.03,2043.5 2424.84,2043.42Z" style="fill:rgb(10,48,79);"/>
                    </g>
                    <g transform="matrix(34.732098,0,0,34.732098,-45225.289434,-93542.322292)">
                        <path d="M1352.123,2622.223C1352.611,2622.359 1352.995,2622.605 1353.275,2622.961C1353.555,2623.317 1353.695,2623.767 1353.695,2624.311C1353.695,2625.039 1353.421,2625.599 1352.873,2625.991C1352.325,2626.383 1351.527,2626.579 1350.479,2626.579L1346.471,2626.579L1346.471,2618.179L1350.239,2618.179C1351.199,2618.179 1351.941,2618.371 1352.465,2618.755C1352.989,2619.139 1353.251,2619.671 1353.251,2620.351C1353.251,2620.791 1353.149,2621.171 1352.945,2621.491C1352.741,2621.811 1352.467,2622.055 1352.123,2622.223ZM1347.671,2619.151L1347.671,2621.839L1350.131,2621.839C1350.747,2621.839 1351.221,2621.725 1351.553,2621.497C1351.885,2621.269 1352.051,2620.935 1352.051,2620.495C1352.051,2620.055 1351.885,2619.721 1351.553,2619.493C1351.221,2619.265 1350.747,2619.151 1350.131,2619.151L1347.671,2619.151ZM1350.431,2625.607C1351.111,2625.607 1351.623,2625.495 1351.967,2625.271C1352.311,2625.047 1352.483,2624.695 1352.483,2624.215C1352.483,2623.279 1351.799,2622.811 1350.431,2622.811L1347.671,2622.811L1347.671,2625.607L1350.431,2625.607Z" style="fill:rgb(31,41,55);fill-rule:nonzero;"/>
                        <path d="M1355.555,2618.179L1359.095,2618.179C1359.983,2618.179 1360.771,2618.355 1361.459,2618.707C1362.147,2619.059 1362.681,2619.553 1363.061,2620.189C1363.441,2620.825 1363.631,2621.555 1363.631,2622.379C1363.631,2623.203 1363.441,2623.933 1363.061,2624.569C1362.681,2625.205 1362.147,2625.699 1361.459,2626.051C1360.771,2626.403 1359.983,2626.579 1359.095,2626.579L1355.555,2626.579L1355.555,2618.179ZM1359.023,2625.535C1359.703,2625.535 1360.301,2625.403 1360.817,2625.139C1361.333,2624.875 1361.731,2624.505 1362.011,2624.029C1362.291,2623.553 1362.431,2623.003 1362.431,2622.379C1362.431,2621.755 1362.291,2621.205 1362.011,2620.729C1361.731,2620.253 1361.333,2619.883 1360.817,2619.619C1360.301,2619.355 1359.703,2619.223 1359.023,2619.223L1356.755,2619.223L1356.755,2625.535L1359.023,2625.535Z" style="fill:rgb(31,41,55);fill-rule:nonzero;"/>
                        <path d="M1380.563,2618.179L1377.755,2626.579L1376.495,2626.579L1374.203,2619.871L1371.911,2626.579L1370.627,2626.579L1367.819,2618.179L1369.055,2618.179L1371.323,2625.007L1373.687,2618.179L1374.791,2618.179L1377.107,2625.043L1379.423,2618.179L1380.563,2618.179Z" style="fill:rgb(31,41,55);fill-rule:nonzero;"/>
                        <path d="M1387.127,2623.435C1387.127,2623.523 1387.119,2623.639 1387.103,2623.783L1381.943,2623.783C1382.015,2624.343 1382.261,2624.793 1382.681,2625.133C1383.101,2625.473 1383.623,2625.643 1384.247,2625.643C1385.007,2625.643 1385.619,2625.387 1386.083,2624.875L1386.719,2625.619C1386.431,2625.955 1386.073,2626.211 1385.645,2626.387C1385.217,2626.563 1384.739,2626.651 1384.211,2626.651C1383.539,2626.651 1382.943,2626.513 1382.423,2626.237C1381.903,2625.961 1381.501,2625.575 1381.217,2625.079C1380.933,2624.583 1380.791,2624.023 1380.791,2623.399C1380.791,2622.783 1380.929,2622.227 1381.205,2621.731C1381.481,2621.235 1381.861,2620.849 1382.345,2620.573C1382.829,2620.297 1383.375,2620.159 1383.983,2620.159C1384.591,2620.159 1385.133,2620.297 1385.609,2620.573C1386.085,2620.849 1386.457,2621.235 1386.725,2621.731C1386.993,2622.227 1387.127,2622.795 1387.127,2623.435ZM1383.983,2621.131C1383.431,2621.131 1382.969,2621.299 1382.597,2621.635C1382.225,2621.971 1382.007,2622.411 1381.943,2622.955L1386.023,2622.955C1385.959,2622.419 1385.741,2621.981 1385.369,2621.641C1384.997,2621.301 1384.535,2621.131 1383.983,2621.131Z" style="fill:rgb(31,41,55);fill-rule:nonzero;"/>
                        <path d="M1392.095,2620.159C1392.711,2620.159 1393.263,2620.295 1393.751,2620.567C1394.239,2620.839 1394.621,2621.219 1394.897,2621.707C1395.173,2622.195 1395.311,2622.759 1395.311,2623.399C1395.311,2624.039 1395.173,2624.605 1394.897,2625.097C1394.621,2625.589 1394.239,2625.971 1393.751,2626.243C1393.263,2626.515 1392.711,2626.651 1392.095,2626.651C1391.623,2626.651 1391.191,2626.559 1390.799,2626.375C1390.407,2626.191 1390.083,2625.923 1389.827,2625.571L1389.827,2626.579L1388.723,2626.579L1388.723,2617.675L1389.875,2617.675L1389.875,2621.179C1390.131,2620.843 1390.451,2620.589 1390.835,2620.417C1391.219,2620.245 1391.639,2620.159 1392.095,2620.159ZM1391.999,2625.643C1392.407,2625.643 1392.773,2625.549 1393.097,2625.361C1393.421,2625.173 1393.677,2624.909 1393.865,2624.569C1394.053,2624.229 1394.147,2623.839 1394.147,2623.399C1394.147,2622.959 1394.053,2622.569 1393.865,2622.229C1393.677,2621.889 1393.421,2621.627 1393.097,2621.443C1392.773,2621.259 1392.407,2621.167 1391.999,2621.167C1391.599,2621.167 1391.235,2621.259 1390.907,2621.443C1390.579,2621.627 1390.323,2621.889 1390.139,2622.229C1389.955,2622.569 1389.863,2622.959 1389.863,2623.399C1389.863,2623.839 1389.955,2624.229 1390.139,2624.569C1390.323,2624.909 1390.579,2625.173 1390.907,2625.361C1391.235,2625.549 1391.599,2625.643 1391.999,2625.643Z" style="fill:rgb(31,41,55);fill-rule:nonzero;"/>
                        <path d="M1402.907,2617.675L1402.907,2626.579L1401.803,2626.579L1401.803,2625.571C1401.547,2625.923 1401.223,2626.191 1400.831,2626.375C1400.439,2626.559 1400.007,2626.651 1399.535,2626.651C1398.919,2626.651 1398.367,2626.515 1397.879,2626.243C1397.391,2625.971 1397.009,2625.589 1396.733,2625.097C1396.457,2624.605 1396.319,2624.039 1396.319,2623.399C1396.319,2622.759 1396.457,2622.195 1396.733,2621.707C1397.009,2621.219 1397.391,2620.839 1397.879,2620.567C1398.367,2620.295 1398.919,2620.159 1399.535,2620.159C1399.991,2620.159 1400.411,2620.245 1400.795,2620.417C1401.179,2620.589 1401.499,2620.843 1401.755,2621.179L1401.755,2617.675L1402.907,2617.675ZM1399.631,2625.643C1400.031,2625.643 1400.395,2625.549 1400.723,2625.361C1401.051,2625.173 1401.307,2624.909 1401.491,2624.569C1401.675,2624.229 1401.767,2623.839 1401.767,2623.399C1401.767,2622.959 1401.675,2622.569 1401.491,2622.229C1401.307,2621.889 1401.051,2621.627 1400.723,2621.443C1400.395,2621.259 1400.031,2621.167 1399.631,2621.167C1399.223,2621.167 1398.857,2621.259 1398.533,2621.443C1398.209,2621.627 1397.953,2621.889 1397.765,2622.229C1397.577,2622.569 1397.483,2622.959 1397.483,2623.399C1397.483,2623.839 1397.577,2624.229 1397.765,2624.569C1397.953,2624.909 1398.209,2625.173 1398.533,2625.361C1398.857,2625.549 1399.223,2625.643 1399.631,2625.643Z" style="fill:rgb(31,41,55);fill-rule:nonzero;"/>
                        <path d="M1410.839,2623.435C1410.839,2623.523 1410.831,2623.639 1410.815,2623.783L1405.655,2623.783C1405.727,2624.343 1405.973,2624.793 1406.393,2625.133C1406.813,2625.473 1407.335,2625.643 1407.959,2625.643C1408.719,2625.643 1409.331,2625.387 1409.795,2624.875L1410.431,2625.619C1410.143,2625.955 1409.785,2626.211 1409.357,2626.387C1408.929,2626.563 1408.451,2626.651 1407.923,2626.651C1407.251,2626.651 1406.655,2626.513 1406.135,2626.237C1405.615,2625.961 1405.213,2625.575 1404.929,2625.079C1404.645,2624.583 1404.503,2624.023 1404.503,2623.399C1404.503,2622.783 1404.641,2622.227 1404.917,2621.731C1405.193,2621.235 1405.573,2620.849 1406.057,2620.573C1406.541,2620.297 1407.087,2620.159 1407.695,2620.159C1408.303,2620.159 1408.845,2620.297 1409.321,2620.573C1409.797,2620.849 1410.169,2621.235 1410.437,2621.731C1410.705,2622.227 1410.839,2622.795 1410.839,2623.435ZM1407.695,2621.131C1407.143,2621.131 1406.681,2621.299 1406.309,2621.635C1405.937,2621.971 1405.719,2622.411 1405.655,2622.955L1409.735,2622.955C1409.671,2622.419 1409.453,2621.981 1409.081,2621.641C1408.709,2621.301 1408.247,2621.131 1407.695,2621.131Z" style="fill:rgb(31,41,55);fill-rule:nonzero;"/>
                        <path d="M1414.259,2626.651C1413.739,2626.651 1413.239,2626.581 1412.759,2626.441C1412.279,2626.301 1411.903,2626.123 1411.631,2625.907L1412.111,2624.995C1412.391,2625.195 1412.731,2625.355 1413.131,2625.475C1413.531,2625.595 1413.935,2625.655 1414.343,2625.655C1415.351,2625.655 1415.855,2625.367 1415.855,2624.791C1415.855,2624.599 1415.787,2624.447 1415.651,2624.335C1415.515,2624.223 1415.345,2624.141 1415.141,2624.089C1414.937,2624.037 1414.647,2623.979 1414.271,2623.915C1413.759,2623.835 1413.341,2623.743 1413.017,2623.639C1412.693,2623.535 1412.415,2623.359 1412.183,2623.111C1411.951,2622.863 1411.835,2622.515 1411.835,2622.067C1411.835,2621.491 1412.075,2621.029 1412.555,2620.681C1413.035,2620.333 1413.679,2620.159 1414.487,2620.159C1414.911,2620.159 1415.335,2620.211 1415.759,2620.315C1416.183,2620.419 1416.531,2620.559 1416.803,2620.735L1416.311,2621.647C1415.791,2621.311 1415.179,2621.143 1414.475,2621.143C1413.987,2621.143 1413.615,2621.223 1413.359,2621.383C1413.103,2621.543 1412.975,2621.755 1412.975,2622.019C1412.975,2622.227 1413.047,2622.391 1413.191,2622.511C1413.335,2622.631 1413.513,2622.719 1413.725,2622.775C1413.937,2622.831 1414.235,2622.895 1414.619,2622.967C1415.131,2623.055 1415.545,2623.149 1415.861,2623.249C1416.177,2623.349 1416.447,2623.519 1416.671,2623.759C1416.895,2623.999 1417.007,2624.335 1417.007,2624.767C1417.007,2625.343 1416.761,2625.801 1416.269,2626.141C1415.777,2626.481 1415.107,2626.651 1414.259,2626.651Z" style="fill:rgb(31,41,55);fill-rule:nonzero;"/>
                        <path d="M1418.447,2620.219L1419.599,2620.219L1419.599,2626.579L1418.447,2626.579L1418.447,2620.219ZM1419.023,2618.995C1418.799,2618.995 1418.613,2618.923 1418.465,2618.779C1418.317,2618.635 1418.243,2618.459 1418.243,2618.251C1418.243,2618.043 1418.317,2617.865 1418.465,2617.717C1418.613,2617.569 1418.799,2617.495 1419.023,2617.495C1419.247,2617.495 1419.433,2617.565 1419.581,2617.705C1419.729,2617.845 1419.803,2618.019 1419.803,2618.227C1419.803,2618.443 1419.729,2618.625 1419.581,2618.773C1419.433,2618.921 1419.247,2618.995 1419.023,2618.995Z" style="fill:rgb(31,41,55);fill-rule:nonzero;"/>
                        <path d="M1427.879,2620.219L1427.879,2625.715C1427.879,2626.827 1427.603,2627.649 1427.051,2628.181C1426.499,2628.713 1425.675,2628.979 1424.579,2628.979C1423.979,2628.979 1423.407,2628.897 1422.863,2628.733C1422.319,2628.569 1421.879,2628.335 1421.543,2628.031L1422.095,2627.143C1422.391,2627.399 1422.757,2627.601 1423.193,2627.749C1423.629,2627.897 1424.079,2627.971 1424.543,2627.971C1425.287,2627.971 1425.837,2627.795 1426.193,2627.443C1426.549,2627.091 1426.727,2626.555 1426.727,2625.835L1426.727,2625.331C1426.455,2625.659 1426.121,2625.905 1425.725,2626.069C1425.329,2626.233 1424.899,2626.315 1424.435,2626.315C1423.827,2626.315 1423.277,2626.185 1422.785,2625.925C1422.293,2625.665 1421.907,2625.301 1421.627,2624.833C1421.347,2624.365 1421.207,2623.831 1421.207,2623.231C1421.207,2622.631 1421.347,2622.097 1421.627,2621.629C1421.907,2621.161 1422.293,2620.799 1422.785,2620.543C1423.277,2620.287 1423.827,2620.159 1424.435,2620.159C1424.915,2620.159 1425.361,2620.247 1425.773,2620.423C1426.185,2620.599 1426.523,2620.859 1426.787,2621.203L1426.787,2620.219L1427.879,2620.219ZM1424.567,2625.307C1424.983,2625.307 1425.357,2625.219 1425.689,2625.043C1426.021,2624.867 1426.281,2624.621 1426.469,2624.305C1426.657,2623.989 1426.751,2623.631 1426.751,2623.231C1426.751,2622.615 1426.547,2622.117 1426.139,2621.737C1425.731,2621.357 1425.207,2621.167 1424.567,2621.167C1423.919,2621.167 1423.391,2621.357 1422.983,2621.737C1422.575,2622.117 1422.371,2622.615 1422.371,2623.231C1422.371,2623.631 1422.465,2623.989 1422.653,2624.305C1422.841,2624.621 1423.101,2624.867 1423.433,2625.043C1423.765,2625.219 1424.143,2625.307 1424.567,2625.307Z" style="fill:rgb(31,41,55);fill-rule:nonzero;"/>
                        <path d="M1433.471,2620.159C1434.279,2620.159 1434.921,2620.393 1435.397,2620.861C1435.873,2621.329 1436.111,2622.015 1436.111,2622.919L1436.111,2626.579L1434.959,2626.579L1434.959,2623.051C1434.959,2622.435 1434.811,2621.971 1434.515,2621.659C1434.219,2621.347 1433.795,2621.191 1433.243,2621.191C1432.619,2621.191 1432.127,2621.373 1431.767,2621.737C1431.407,2622.101 1431.227,2622.623 1431.227,2623.303L1431.227,2626.579L1430.075,2626.579L1430.075,2620.219L1431.179,2620.219L1431.179,2621.179C1431.411,2620.851 1431.725,2620.599 1432.121,2620.423C1432.517,2620.247 1432.967,2620.159 1433.471,2620.159Z" style="fill:rgb(31,41,55);fill-rule:nonzero;"/>
                    </g>
                </g>
                <g transform="matrix(5.56453,0,0,5.56453,-6850.668658,-18764.476747)">
                    <path d="M1508.641,2972.886L1517.191,2972.886C1519.411,2972.886 1521.371,2973.331 1523.071,2974.221C1524.771,2975.111 1526.091,2976.351 1527.031,2977.941C1527.971,2979.531 1528.441,2981.346 1528.441,2983.386C1528.441,2985.426 1527.971,2987.241 1527.031,2988.831C1526.091,2990.421 1524.771,2991.661 1523.071,2992.551C1521.371,2993.441 1519.411,2993.886 1517.191,2993.886L1508.641,2993.886L1508.641,2972.886ZM1517.071,2991.966C1518.911,2991.966 1520.521,2991.601 1521.901,2990.871C1523.281,2990.141 1524.351,2989.131 1525.111,2987.841C1525.871,2986.551 1526.251,2985.066 1526.251,2983.386C1526.251,2981.706 1525.871,2980.221 1525.111,2978.931C1524.351,2977.641 1523.281,2976.631 1521.901,2975.901C1520.521,2975.171 1518.911,2974.806 1517.071,2974.806L1510.861,2974.806L1510.861,2991.966L1517.071,2991.966Z" style="fill:rgb(31,41,55);fill-rule:nonzero;"/>
                    <path d="M1546.711,2986.656L1533.511,2986.656C1533.631,2988.296 1534.261,2989.621 1535.401,2990.631C1536.541,2991.641 1537.981,2992.146 1539.721,2992.146C1540.701,2992.146 1541.601,2991.971 1542.421,2991.621C1543.241,2991.271 1543.951,2990.756 1544.551,2990.076L1545.751,2991.456C1545.051,2992.296 1544.176,2992.936 1543.126,2993.376C1542.076,2993.816 1540.921,2994.036 1539.661,2994.036C1538.041,2994.036 1536.606,2993.691 1535.356,2993.001C1534.106,2992.311 1533.131,2991.356 1532.431,2990.136C1531.731,2988.916 1531.381,2987.536 1531.381,2985.996C1531.381,2984.456 1531.716,2983.076 1532.386,2981.856C1533.056,2980.636 1533.976,2979.686 1535.146,2979.006C1536.316,2978.326 1537.631,2977.986 1539.091,2977.986C1540.551,2977.986 1541.861,2978.326 1543.021,2979.006C1544.181,2979.686 1545.091,2980.631 1545.751,2981.841C1546.411,2983.051 1546.741,2984.436 1546.741,2985.996L1546.711,2986.656ZM1539.091,2979.816C1537.571,2979.816 1536.296,2980.301 1535.266,2981.271C1534.236,2982.241 1533.651,2983.506 1533.511,2985.066L1544.701,2985.066C1544.561,2983.506 1543.976,2982.241 1542.946,2981.271C1541.916,2980.301 1540.631,2979.816 1539.091,2979.816Z" style="fill:rgb(31,41,55);fill-rule:nonzero;"/>
                    <path d="M1555.321,2994.036C1554.041,2994.036 1552.816,2993.851 1551.646,2993.481C1550.476,2993.111 1549.561,2992.646 1548.901,2992.086L1549.861,2990.406C1550.521,2990.926 1551.351,2991.351 1552.351,2991.681C1553.351,2992.011 1554.391,2992.176 1555.471,2992.176C1556.911,2992.176 1557.976,2991.951 1558.666,2991.501C1559.356,2991.051 1559.701,2990.416 1559.701,2989.596C1559.701,2989.016 1559.511,2988.561 1559.131,2988.231C1558.751,2987.901 1558.271,2987.651 1557.691,2987.481C1557.111,2987.311 1556.341,2987.146 1555.381,2986.986C1554.101,2986.746 1553.071,2986.501 1552.291,2986.251C1551.511,2986.001 1550.846,2985.576 1550.296,2984.976C1549.746,2984.376 1549.471,2983.546 1549.471,2982.486C1549.471,2981.166 1550.021,2980.086 1551.121,2979.246C1552.221,2978.406 1553.751,2977.986 1555.711,2977.986C1556.731,2977.986 1557.751,2978.121 1558.771,2978.391C1559.791,2978.661 1560.631,2979.016 1561.291,2979.456L1560.361,2981.166C1559.061,2980.266 1557.511,2979.816 1555.711,2979.816C1554.351,2979.816 1553.326,2980.056 1552.636,2980.536C1551.946,2981.016 1551.601,2981.646 1551.601,2982.426C1551.601,2983.026 1551.796,2983.506 1552.186,2983.866C1552.576,2984.226 1553.061,2984.491 1553.641,2984.661C1554.221,2984.831 1555.021,2985.006 1556.041,2985.186C1557.301,2985.426 1558.311,2985.666 1559.071,2985.906C1559.831,2986.146 1560.481,2986.556 1561.021,2987.136C1561.561,2987.716 1561.831,2988.516 1561.831,2989.536C1561.831,2990.916 1561.256,2992.011 1560.106,2992.821C1558.956,2993.631 1557.361,2994.036 1555.321,2994.036Z" style="fill:rgb(31,41,55);fill-rule:nonzero;"/>
                    <path d="M1565.761,2978.106L1567.891,2978.106L1567.891,2993.886L1565.761,2993.886L1565.761,2978.106ZM1566.841,2974.656C1566.401,2974.656 1566.031,2974.506 1565.731,2974.206C1565.431,2973.906 1565.281,2973.546 1565.281,2973.126C1565.281,2972.726 1565.431,2972.376 1565.731,2972.076C1566.031,2971.776 1566.401,2971.626 1566.841,2971.626C1567.281,2971.626 1567.651,2971.771 1567.951,2972.061C1568.251,2972.351 1568.401,2972.696 1568.401,2973.096C1568.401,2973.536 1568.251,2973.906 1567.951,2974.206C1567.651,2974.506 1567.281,2974.656 1566.841,2974.656Z" style="fill:rgb(31,41,55);fill-rule:nonzero;"/>
                    <path d="M1588.441,2978.106L1588.441,2991.966C1588.441,2994.646 1587.786,2996.631 1586.476,2997.921C1585.166,2999.211 1583.191,2999.856 1580.551,2999.856C1579.091,2999.856 1577.706,2999.641 1576.396,2999.211C1575.086,2998.781 1574.021,2998.186 1573.201,2997.426L1574.281,2995.806C1575.041,2996.486 1575.966,2997.016 1577.056,2997.396C1578.146,2997.776 1579.291,2997.966 1580.491,2997.966C1582.491,2997.966 1583.961,2997.501 1584.901,2996.571C1585.841,2995.641 1586.311,2994.196 1586.311,2992.236L1586.311,2990.226C1585.651,2991.226 1584.786,2991.986 1583.716,2992.506C1582.646,2993.026 1581.461,2993.286 1580.161,2993.286C1578.681,2993.286 1577.336,2992.961 1576.126,2992.311C1574.916,2991.661 1573.966,2990.751 1573.276,2989.581C1572.586,2988.411 1572.241,2987.086 1572.241,2985.606C1572.241,2984.126 1572.586,2982.806 1573.276,2981.646C1573.966,2980.486 1574.911,2979.586 1576.111,2978.946C1577.311,2978.306 1578.661,2977.986 1580.161,2977.986C1581.501,2977.986 1582.711,2978.256 1583.791,2978.796C1584.871,2979.336 1585.741,2980.116 1586.401,2981.136L1586.401,2978.106L1588.441,2978.106ZM1580.371,2991.396C1581.511,2991.396 1582.541,2991.151 1583.461,2990.661C1584.381,2990.171 1585.096,2989.486 1585.606,2988.606C1586.116,2987.726 1586.371,2986.726 1586.371,2985.606C1586.371,2984.486 1586.116,2983.491 1585.606,2982.621C1585.096,2981.751 1584.386,2981.071 1583.476,2980.581C1582.566,2980.091 1581.531,2979.846 1580.371,2979.846C1579.231,2979.846 1578.206,2980.086 1577.296,2980.566C1576.386,2981.046 1575.676,2981.726 1575.166,2982.606C1574.656,2983.486 1574.401,2984.486 1574.401,2985.606C1574.401,2986.726 1574.656,2987.726 1575.166,2988.606C1575.676,2989.486 1576.386,2990.171 1577.296,2990.661C1578.206,2991.151 1579.231,2991.396 1580.371,2991.396Z" style="fill:rgb(31,41,55);fill-rule:nonzero;"/>
                    <path d="M1602.451,2977.986C1604.431,2977.986 1606.006,2978.561 1607.176,2979.711C1608.346,2980.861 1608.931,2982.536 1608.931,2984.736L1608.931,2993.886L1606.801,2993.886L1606.801,2984.946C1606.801,2983.306 1606.391,2982.056 1605.571,2981.196C1604.751,2980.336 1603.581,2979.906 1602.061,2979.906C1600.361,2979.906 1599.016,2980.411 1598.026,2981.421C1597.036,2982.431 1596.541,2983.826 1596.541,2985.606L1596.541,2993.886L1594.411,2993.886L1594.411,2978.106L1596.451,2978.106L1596.451,2981.016C1597.031,2980.056 1597.836,2979.311 1598.866,2978.781C1599.896,2978.251 1601.091,2977.986 1602.451,2977.986Z" style="fill:rgb(31,41,55);fill-rule:nonzero;"/>
                    <path d="M1630.891,2992.926C1630.491,2993.286 1629.996,2993.561 1629.406,2993.751C1628.816,2993.941 1628.201,2994.036 1627.561,2994.036C1626.081,2994.036 1624.941,2993.636 1624.141,2992.836C1623.341,2992.036 1622.941,2990.906 1622.941,2989.446L1622.941,2979.906L1620.121,2979.906L1620.121,2978.106L1622.941,2978.106L1622.941,2974.656L1625.071,2974.656L1625.071,2978.106L1629.871,2978.106L1629.871,2979.906L1625.071,2979.906L1625.071,2989.326C1625.071,2990.266 1625.306,2990.981 1625.776,2991.471C1626.246,2991.961 1626.921,2992.206 1627.801,2992.206C1628.241,2992.206 1628.666,2992.136 1629.076,2991.996C1629.486,2991.856 1629.841,2991.656 1630.141,2991.396L1630.891,2992.926Z" style="fill:rgb(31,41,55);fill-rule:nonzero;"/>
                    <path d="M1642.801,2977.986C1644.781,2977.986 1646.356,2978.561 1647.526,2979.711C1648.696,2980.861 1649.281,2982.536 1649.281,2984.736L1649.281,2993.886L1647.151,2993.886L1647.151,2984.946C1647.151,2983.306 1646.741,2982.056 1645.921,2981.196C1645.101,2980.336 1643.931,2979.906 1642.411,2979.906C1640.711,2979.906 1639.366,2980.411 1638.376,2981.421C1637.386,2982.431 1636.891,2983.826 1636.891,2985.606L1636.891,2993.886L1634.761,2993.886L1634.761,2971.626L1636.891,2971.626L1636.891,2980.866C1637.471,2979.946 1638.271,2979.236 1639.291,2978.736C1640.311,2978.236 1641.481,2977.986 1642.801,2977.986Z" style="fill:rgb(31,41,55);fill-rule:nonzero;"/>
                    <path d="M1660.591,2977.986C1662.651,2977.986 1664.231,2978.501 1665.331,2979.531C1666.431,2980.561 1666.981,2982.086 1666.981,2984.106L1666.981,2993.886L1664.941,2993.886L1664.941,2991.426C1664.461,2992.246 1663.756,2992.886 1662.826,2993.346C1661.896,2993.806 1660.791,2994.036 1659.511,2994.036C1657.751,2994.036 1656.351,2993.616 1655.311,2992.776C1654.271,2991.936 1653.751,2990.826 1653.751,2989.446C1653.751,2988.106 1654.236,2987.026 1655.206,2986.206C1656.176,2985.386 1657.721,2984.976 1659.841,2984.976L1664.851,2984.976L1664.851,2984.016C1664.851,2982.656 1664.471,2981.621 1663.711,2980.911C1662.951,2980.201 1661.841,2979.846 1660.381,2979.846C1659.381,2979.846 1658.421,2980.011 1657.501,2980.341C1656.581,2980.671 1655.791,2981.126 1655.131,2981.706L1654.171,2980.116C1654.971,2979.436 1655.931,2978.911 1657.051,2978.541C1658.171,2978.171 1659.351,2977.986 1660.591,2977.986ZM1659.841,2992.356C1661.041,2992.356 1662.071,2992.081 1662.931,2991.531C1663.791,2990.981 1664.431,2990.186 1664.851,2989.146L1664.851,2986.566L1659.901,2986.566C1657.201,2986.566 1655.851,2987.506 1655.851,2989.386C1655.851,2990.306 1656.201,2991.031 1656.901,2991.561C1657.601,2992.091 1658.581,2992.356 1659.841,2992.356Z" style="fill:rgb(31,41,55);fill-rule:nonzero;"/>
                    <path d="M1681.081,2992.926C1680.681,2993.286 1680.186,2993.561 1679.596,2993.751C1679.006,2993.941 1678.391,2994.036 1677.751,2994.036C1676.271,2994.036 1675.131,2993.636 1674.331,2992.836C1673.531,2992.036 1673.131,2990.906 1673.131,2989.446L1673.131,2979.906L1670.311,2979.906L1670.311,2978.106L1673.131,2978.106L1673.131,2974.656L1675.261,2974.656L1675.261,2978.106L1680.061,2978.106L1680.061,2979.906L1675.261,2979.906L1675.261,2989.326C1675.261,2990.266 1675.496,2990.981 1675.966,2991.471C1676.436,2991.961 1677.111,2992.206 1677.991,2992.206C1678.431,2992.206 1678.856,2992.136 1679.266,2991.996C1679.676,2991.856 1680.031,2991.656 1680.331,2991.396L1681.081,2992.926Z" style="fill:rgb(31,41,55);fill-rule:nonzero;"/>
                    <path d="M1697.041,2994.036C1695.761,2994.036 1694.536,2993.851 1693.366,2993.481C1692.196,2993.111 1691.281,2992.646 1690.621,2992.086L1691.581,2990.406C1692.241,2990.926 1693.071,2991.351 1694.071,2991.681C1695.071,2992.011 1696.111,2992.176 1697.191,2992.176C1698.631,2992.176 1699.696,2991.951 1700.386,2991.501C1701.076,2991.051 1701.421,2990.416 1701.421,2989.596C1701.421,2989.016 1701.231,2988.561 1700.851,2988.231C1700.471,2987.901 1699.991,2987.651 1699.411,2987.481C1698.831,2987.311 1698.061,2987.146 1697.101,2986.986C1695.821,2986.746 1694.791,2986.501 1694.011,2986.251C1693.231,2986.001 1692.566,2985.576 1692.016,2984.976C1691.466,2984.376 1691.191,2983.546 1691.191,2982.486C1691.191,2981.166 1691.741,2980.086 1692.841,2979.246C1693.941,2978.406 1695.471,2977.986 1697.431,2977.986C1698.451,2977.986 1699.471,2978.121 1700.491,2978.391C1701.511,2978.661 1702.351,2979.016 1703.011,2979.456L1702.081,2981.166C1700.781,2980.266 1699.231,2979.816 1697.431,2979.816C1696.071,2979.816 1695.046,2980.056 1694.356,2980.536C1693.666,2981.016 1693.321,2981.646 1693.321,2982.426C1693.321,2983.026 1693.516,2983.506 1693.906,2983.866C1694.296,2984.226 1694.781,2984.491 1695.361,2984.661C1695.941,2984.831 1696.741,2985.006 1697.761,2985.186C1699.021,2985.426 1700.031,2985.666 1700.791,2985.906C1701.551,2986.146 1702.201,2986.556 1702.741,2987.136C1703.281,2987.716 1703.551,2988.516 1703.551,2989.536C1703.551,2990.916 1702.976,2992.011 1701.826,2992.821C1700.676,2993.631 1699.081,2994.036 1697.041,2994.036Z" style="fill:rgb(31,41,55);fill-rule:nonzero;"/>
                    <path d="M1715.611,2977.986C1717.091,2977.986 1718.431,2978.321 1719.631,2978.991C1720.831,2979.661 1721.771,2980.606 1722.451,2981.826C1723.131,2983.046 1723.471,2984.436 1723.471,2985.996C1723.471,2987.576 1723.131,2988.976 1722.451,2990.196C1721.771,2991.416 1720.836,2992.361 1719.646,2993.031C1718.456,2993.701 1717.111,2994.036 1715.611,2994.036C1714.331,2994.036 1713.176,2993.771 1712.146,2993.241C1711.116,2992.711 1710.271,2991.936 1709.611,2990.916L1709.611,2999.706L1707.481,2999.706L1707.481,2978.106L1709.521,2978.106L1709.521,2981.226C1710.161,2980.186 1711.006,2979.386 1712.056,2978.826C1713.106,2978.266 1714.291,2977.986 1715.611,2977.986ZM1715.461,2992.146C1716.561,2992.146 1717.561,2991.891 1718.461,2991.381C1719.361,2990.871 1720.066,2990.146 1720.576,2989.206C1721.086,2988.266 1721.341,2987.196 1721.341,2985.996C1721.341,2984.796 1721.086,2983.731 1720.576,2982.801C1720.066,2981.871 1719.361,2981.146 1718.461,2980.626C1717.561,2980.106 1716.561,2979.846 1715.461,2979.846C1714.341,2979.846 1713.336,2980.106 1712.446,2980.626C1711.556,2981.146 1710.856,2981.871 1710.346,2982.801C1709.836,2983.731 1709.581,2984.796 1709.581,2985.996C1709.581,2987.196 1709.836,2988.266 1710.346,2989.206C1710.856,2990.146 1711.556,2990.871 1712.446,2991.381C1713.336,2991.891 1714.341,2992.146 1715.461,2992.146Z" style="fill:rgb(31,41,55);fill-rule:nonzero;"/>
                    <path d="M1741.561,2986.656L1728.361,2986.656C1728.481,2988.296 1729.111,2989.621 1730.251,2990.631C1731.391,2991.641 1732.831,2992.146 1734.571,2992.146C1735.551,2992.146 1736.451,2991.971 1737.271,2991.621C1738.091,2991.271 1738.801,2990.756 1739.401,2990.076L1740.601,2991.456C1739.901,2992.296 1739.026,2992.936 1737.976,2993.376C1736.926,2993.816 1735.771,2994.036 1734.511,2994.036C1732.891,2994.036 1731.456,2993.691 1730.206,2993.001C1728.956,2992.311 1727.981,2991.356 1727.281,2990.136C1726.581,2988.916 1726.231,2987.536 1726.231,2985.996C1726.231,2984.456 1726.566,2983.076 1727.236,2981.856C1727.906,2980.636 1728.826,2979.686 1729.996,2979.006C1731.166,2978.326 1732.481,2977.986 1733.941,2977.986C1735.401,2977.986 1736.711,2978.326 1737.871,2979.006C1739.031,2979.686 1739.941,2980.631 1740.601,2981.841C1741.261,2983.051 1741.591,2984.436 1741.591,2985.996L1741.561,2986.656ZM1733.941,2979.816C1732.421,2979.816 1731.146,2980.301 1730.116,2981.271C1729.086,2982.241 1728.501,2983.506 1728.361,2985.066L1739.551,2985.066C1739.411,2983.506 1738.826,2982.241 1737.796,2981.271C1736.766,2980.301 1735.481,2979.816 1733.941,2979.816Z" style="fill:rgb(31,41,55);fill-rule:nonzero;"/>
                    <path d="M1751.011,2977.986C1753.071,2977.986 1754.651,2978.501 1755.751,2979.531C1756.851,2980.561 1757.401,2982.086 1757.401,2984.106L1757.401,2993.886L1755.361,2993.886L1755.361,2991.426C1754.881,2992.246 1754.176,2992.886 1753.246,2993.346C1752.316,2993.806 1751.211,2994.036 1749.931,2994.036C1748.171,2994.036 1746.771,2993.616 1745.731,2992.776C1744.691,2991.936 1744.171,2990.826 1744.171,2989.446C1744.171,2988.106 1744.656,2987.026 1745.626,2986.206C1746.596,2985.386 1748.141,2984.976 1750.261,2984.976L1755.271,2984.976L1755.271,2984.016C1755.271,2982.656 1754.891,2981.621 1754.131,2980.911C1753.371,2980.201 1752.261,2979.846 1750.801,2979.846C1749.801,2979.846 1748.841,2980.011 1747.921,2980.341C1747.001,2980.671 1746.211,2981.126 1745.551,2981.706L1744.591,2980.116C1745.391,2979.436 1746.351,2978.911 1747.471,2978.541C1748.591,2978.171 1749.771,2977.986 1751.011,2977.986ZM1750.261,2992.356C1751.461,2992.356 1752.491,2992.081 1753.351,2991.531C1754.211,2990.981 1754.851,2990.186 1755.271,2989.146L1755.271,2986.566L1750.321,2986.566C1747.621,2986.566 1746.271,2987.506 1746.271,2989.386C1746.271,2990.306 1746.621,2991.031 1747.321,2991.561C1748.021,2992.091 1749.001,2992.356 1750.261,2992.356Z" style="fill:rgb(31,41,55);fill-rule:nonzero;"/>
                    <path d="M1769.041,2985.966L1765.321,2989.386L1765.321,2993.886L1763.191,2993.886L1763.191,2971.626L1765.321,2971.626L1765.321,2986.716L1774.741,2978.106L1777.381,2978.106L1770.631,2984.556L1778.011,2993.886L1775.401,2993.886L1769.041,2985.966Z" style="fill:rgb(31,41,55);fill-rule:nonzero;"/>
                    <path d="M1784.971,2994.036C1783.691,2994.036 1782.466,2993.851 1781.296,2993.481C1780.126,2993.111 1779.211,2992.646 1778.551,2992.086L1779.511,2990.406C1780.171,2990.926 1781.001,2991.351 1782.001,2991.681C1783.001,2992.011 1784.041,2992.176 1785.121,2992.176C1786.561,2992.176 1787.626,2991.951 1788.316,2991.501C1789.006,2991.051 1789.351,2990.416 1789.351,2989.596C1789.351,2989.016 1789.161,2988.561 1788.781,2988.231C1788.401,2987.901 1787.921,2987.651 1787.341,2987.481C1786.761,2987.311 1785.991,2987.146 1785.031,2986.986C1783.751,2986.746 1782.721,2986.501 1781.941,2986.251C1781.161,2986.001 1780.496,2985.576 1779.946,2984.976C1779.396,2984.376 1779.121,2983.546 1779.121,2982.486C1779.121,2981.166 1779.671,2980.086 1780.771,2979.246C1781.871,2978.406 1783.401,2977.986 1785.361,2977.986C1786.381,2977.986 1787.401,2978.121 1788.421,2978.391C1789.441,2978.661 1790.281,2979.016 1790.941,2979.456L1790.011,2981.166C1788.711,2980.266 1787.161,2979.816 1785.361,2979.816C1784.001,2979.816 1782.976,2980.056 1782.286,2980.536C1781.596,2981.016 1781.251,2981.646 1781.251,2982.426C1781.251,2983.026 1781.446,2983.506 1781.836,2983.866C1782.226,2984.226 1782.711,2984.491 1783.291,2984.661C1783.871,2984.831 1784.671,2985.006 1785.691,2985.186C1786.951,2985.426 1787.961,2985.666 1788.721,2985.906C1789.481,2986.146 1790.131,2986.556 1790.671,2987.136C1791.211,2987.716 1791.481,2988.516 1791.481,2989.536C1791.481,2990.916 1790.906,2992.011 1789.756,2992.821C1788.606,2993.631 1787.011,2994.036 1784.971,2994.036Z" style="fill:rgb(31,41,55);fill-rule:nonzero;"/>
                    <path d="M1804.741,2987.976C1804.121,2987.976 1803.591,2987.756 1803.151,2987.316C1802.711,2986.876 1802.491,2986.326 1802.491,2985.666C1802.491,2985.026 1802.711,2984.491 1803.151,2984.061C1803.591,2983.631 1804.121,2983.416 1804.741,2983.416C1805.361,2983.416 1805.891,2983.631 1806.331,2984.061C1806.771,2984.491 1806.991,2985.026 1806.991,2985.666C1806.991,2986.306 1806.771,2986.851 1806.331,2987.301C1805.891,2987.751 1805.361,2987.976 1804.741,2987.976Z" style="fill:rgb(31,41,55);fill-rule:nonzero;"/>
                    <path d="M1829.551,2994.066C1827.471,2994.066 1825.596,2993.606 1823.926,2992.686C1822.256,2991.766 1820.946,2990.491 1819.996,2988.861C1819.046,2987.231 1818.571,2985.406 1818.571,2983.386C1818.571,2981.366 1819.046,2979.541 1819.996,2977.911C1820.946,2976.281 1822.261,2975.006 1823.941,2974.086C1825.621,2973.166 1827.501,2972.706 1829.581,2972.706C1831.141,2972.706 1832.581,2972.966 1833.901,2973.486C1835.221,2974.006 1836.341,2974.766 1837.261,2975.766L1835.851,2977.176C1834.211,2975.516 1832.141,2974.686 1829.641,2974.686C1827.981,2974.686 1826.471,2975.066 1825.111,2975.826C1823.751,2976.586 1822.686,2977.626 1821.916,2978.946C1821.146,2980.266 1820.761,2981.746 1820.761,2983.386C1820.761,2985.026 1821.146,2986.506 1821.916,2987.826C1822.686,2989.146 1823.751,2990.186 1825.111,2990.946C1826.471,2991.706 1827.981,2992.086 1829.641,2992.086C1832.161,2992.086 1834.231,2991.246 1835.851,2989.566L1837.261,2990.976C1836.341,2991.976 1835.216,2992.741 1833.886,2993.271C1832.556,2993.801 1831.111,2994.066 1829.551,2994.066Z" style="fill:rgb(31,41,55);fill-rule:nonzero;"/>
                    <path d="M1847.311,2994.036C1845.791,2994.036 1844.421,2993.691 1843.201,2993.001C1841.981,2992.311 1841.021,2991.356 1840.321,2990.136C1839.621,2988.916 1839.271,2987.536 1839.271,2985.996C1839.271,2984.456 1839.621,2983.076 1840.321,2981.856C1841.021,2980.636 1841.981,2979.686 1843.201,2979.006C1844.421,2978.326 1845.791,2977.986 1847.311,2977.986C1848.831,2977.986 1850.201,2978.326 1851.421,2979.006C1852.641,2979.686 1853.596,2980.636 1854.286,2981.856C1854.976,2983.076 1855.321,2984.456 1855.321,2985.996C1855.321,2987.536 1854.976,2988.916 1854.286,2990.136C1853.596,2991.356 1852.641,2992.311 1851.421,2993.001C1850.201,2993.691 1848.831,2994.036 1847.311,2994.036ZM1847.311,2992.146C1848.431,2992.146 1849.436,2991.891 1850.326,2991.381C1851.216,2990.871 1851.911,2990.146 1852.411,2989.206C1852.911,2988.266 1853.161,2987.196 1853.161,2985.996C1853.161,2984.796 1852.911,2983.726 1852.411,2982.786C1851.911,2981.846 1851.216,2981.121 1850.326,2980.611C1849.436,2980.101 1848.431,2979.846 1847.311,2979.846C1846.191,2979.846 1845.186,2980.101 1844.296,2980.611C1843.406,2981.121 1842.706,2981.846 1842.196,2982.786C1841.686,2983.726 1841.431,2984.796 1841.431,2985.996C1841.431,2987.196 1841.686,2988.266 1842.196,2989.206C1842.706,2990.146 1843.406,2990.871 1844.296,2991.381C1845.186,2991.891 1846.191,2992.146 1847.311,2992.146Z" style="fill:rgb(31,41,55);fill-rule:nonzero;"/>
                    <path d="M1874.071,2971.626L1874.071,2993.886L1872.031,2993.886L1872.031,2990.766C1871.391,2991.826 1870.546,2992.636 1869.496,2993.196C1868.446,2993.756 1867.261,2994.036 1865.941,2994.036C1864.461,2994.036 1863.121,2993.696 1861.921,2993.016C1860.721,2992.336 1859.781,2991.386 1859.101,2990.166C1858.421,2988.946 1858.081,2987.556 1858.081,2985.996C1858.081,2984.436 1858.421,2983.046 1859.101,2981.826C1859.781,2980.606 1860.721,2979.661 1861.921,2978.991C1863.121,2978.321 1864.461,2977.986 1865.941,2977.986C1867.221,2977.986 1868.376,2978.251 1869.406,2978.781C1870.436,2979.311 1871.281,2980.086 1871.941,2981.106L1871.941,2971.626L1874.071,2971.626ZM1866.121,2992.146C1867.221,2992.146 1868.216,2991.891 1869.106,2991.381C1869.996,2990.871 1870.696,2990.146 1871.206,2989.206C1871.716,2988.266 1871.971,2987.196 1871.971,2985.996C1871.971,2984.796 1871.716,2983.726 1871.206,2982.786C1870.696,2981.846 1869.996,2981.121 1869.106,2980.611C1868.216,2980.101 1867.221,2979.846 1866.121,2979.846C1865.001,2979.846 1863.996,2980.101 1863.106,2980.611C1862.216,2981.121 1861.516,2981.846 1861.006,2982.786C1860.496,2983.726 1860.241,2984.796 1860.241,2985.996C1860.241,2987.196 1860.496,2988.266 1861.006,2989.206C1861.516,2990.146 1862.216,2990.871 1863.106,2991.381C1863.996,2991.891 1865.001,2992.146 1866.121,2992.146Z" style="fill:rgb(31,41,55);fill-rule:nonzero;"/>
                    <path d="M1893.751,2986.656L1880.551,2986.656C1880.671,2988.296 1881.301,2989.621 1882.441,2990.631C1883.581,2991.641 1885.021,2992.146 1886.761,2992.146C1887.741,2992.146 1888.641,2991.971 1889.461,2991.621C1890.281,2991.271 1890.991,2990.756 1891.591,2990.076L1892.791,2991.456C1892.091,2992.296 1891.216,2992.936 1890.166,2993.376C1889.116,2993.816 1887.961,2994.036 1886.701,2994.036C1885.081,2994.036 1883.646,2993.691 1882.396,2993.001C1881.146,2992.311 1880.171,2991.356 1879.471,2990.136C1878.771,2988.916 1878.421,2987.536 1878.421,2985.996C1878.421,2984.456 1878.756,2983.076 1879.426,2981.856C1880.096,2980.636 1881.016,2979.686 1882.186,2979.006C1883.356,2978.326 1884.671,2977.986 1886.131,2977.986C1887.591,2977.986 1888.901,2978.326 1890.061,2979.006C1891.221,2979.686 1892.131,2980.631 1892.791,2981.841C1893.451,2983.051 1893.781,2984.436 1893.781,2985.996L1893.751,2986.656ZM1886.131,2979.816C1884.611,2979.816 1883.336,2980.301 1882.306,2981.271C1881.276,2982.241 1880.691,2983.506 1880.551,2985.066L1891.741,2985.066C1891.601,2983.506 1891.016,2982.241 1889.986,2981.271C1888.956,2980.301 1887.671,2979.816 1886.131,2979.816Z" style="fill:rgb(31,41,55);fill-rule:nonzero;"/>
                    <path d="M1914.301,2992.926C1913.901,2993.286 1913.406,2993.561 1912.816,2993.751C1912.226,2993.941 1911.611,2994.036 1910.971,2994.036C1909.491,2994.036 1908.351,2993.636 1907.551,2992.836C1906.751,2992.036 1906.351,2990.906 1906.351,2989.446L1906.351,2979.906L1903.531,2979.906L1903.531,2978.106L1906.351,2978.106L1906.351,2974.656L1908.481,2974.656L1908.481,2978.106L1913.281,2978.106L1913.281,2979.906L1908.481,2979.906L1908.481,2989.326C1908.481,2990.266 1908.716,2990.981 1909.186,2991.471C1909.656,2991.961 1910.331,2992.206 1911.211,2992.206C1911.651,2992.206 1912.076,2992.136 1912.486,2991.996C1912.896,2991.856 1913.251,2991.656 1913.551,2991.396L1914.301,2992.926Z" style="fill:rgb(31,41,55);fill-rule:nonzero;"/>
                    <path d="M1926.211,2977.986C1928.191,2977.986 1929.766,2978.561 1930.936,2979.711C1932.106,2980.861 1932.691,2982.536 1932.691,2984.736L1932.691,2993.886L1930.561,2993.886L1930.561,2984.946C1930.561,2983.306 1930.151,2982.056 1929.331,2981.196C1928.511,2980.336 1927.341,2979.906 1925.821,2979.906C1924.121,2979.906 1922.776,2980.411 1921.786,2981.421C1920.796,2982.431 1920.301,2983.826 1920.301,2985.606L1920.301,2993.886L1918.171,2993.886L1918.171,2971.626L1920.301,2971.626L1920.301,2980.866C1920.881,2979.946 1921.681,2979.236 1922.701,2978.736C1923.721,2978.236 1924.891,2977.986 1926.211,2977.986Z" style="fill:rgb(31,41,55);fill-rule:nonzero;"/>
                    <path d="M1944.001,2977.986C1946.061,2977.986 1947.641,2978.501 1948.741,2979.531C1949.841,2980.561 1950.391,2982.086 1950.391,2984.106L1950.391,2993.886L1948.351,2993.886L1948.351,2991.426C1947.871,2992.246 1947.166,2992.886 1946.236,2993.346C1945.306,2993.806 1944.201,2994.036 1942.921,2994.036C1941.161,2994.036 1939.761,2993.616 1938.721,2992.776C1937.681,2991.936 1937.161,2990.826 1937.161,2989.446C1937.161,2988.106 1937.646,2987.026 1938.616,2986.206C1939.586,2985.386 1941.131,2984.976 1943.251,2984.976L1948.261,2984.976L1948.261,2984.016C1948.261,2982.656 1947.881,2981.621 1947.121,2980.911C1946.361,2980.201 1945.251,2979.846 1943.791,2979.846C1942.791,2979.846 1941.831,2980.011 1940.911,2980.341C1939.991,2980.671 1939.201,2981.126 1938.541,2981.706L1937.581,2980.116C1938.381,2979.436 1939.341,2978.911 1940.461,2978.541C1941.581,2978.171 1942.761,2977.986 1944.001,2977.986ZM1943.251,2992.356C1944.451,2992.356 1945.481,2992.081 1946.341,2991.531C1947.201,2990.981 1947.841,2990.186 1948.261,2989.146L1948.261,2986.566L1943.311,2986.566C1940.611,2986.566 1939.261,2987.506 1939.261,2989.386C1939.261,2990.306 1939.611,2991.031 1940.311,2991.561C1941.011,2992.091 1941.991,2992.356 1943.251,2992.356Z" style="fill:rgb(31,41,55);fill-rule:nonzero;"/>
                    <path d="M1964.491,2992.926C1964.091,2993.286 1963.596,2993.561 1963.006,2993.751C1962.416,2993.941 1961.801,2994.036 1961.161,2994.036C1959.681,2994.036 1958.541,2993.636 1957.741,2992.836C1956.941,2992.036 1956.541,2990.906 1956.541,2989.446L1956.541,2979.906L1953.721,2979.906L1953.721,2978.106L1956.541,2978.106L1956.541,2974.656L1958.671,2974.656L1958.671,2978.106L1963.471,2978.106L1963.471,2979.906L1958.671,2979.906L1958.671,2989.326C1958.671,2990.266 1958.906,2990.981 1959.376,2991.471C1959.846,2991.961 1960.521,2992.206 1961.401,2992.206C1961.841,2992.206 1962.266,2992.136 1962.676,2991.996C1963.086,2991.856 1963.441,2991.656 1963.741,2991.396L1964.491,2992.926Z" style="fill:rgb(31,41,55);fill-rule:nonzero;"/>
                    <path d="M1999.381,2978.106L1993.411,2993.886L1991.401,2993.886L1986.421,2980.956L1981.441,2993.886L1979.431,2993.886L1973.491,2978.106L1975.531,2978.106L1980.481,2991.516L1985.551,2978.106L1987.381,2978.106L1992.421,2991.516L1997.431,2978.106L1999.381,2978.106Z" style="fill:rgb(31,41,55);fill-rule:nonzero;"/>
                    <path d="M2008.591,2994.036C2007.071,2994.036 2005.701,2993.691 2004.481,2993.001C2003.261,2992.311 2002.301,2991.356 2001.601,2990.136C2000.901,2988.916 2000.551,2987.536 2000.551,2985.996C2000.551,2984.456 2000.901,2983.076 2001.601,2981.856C2002.301,2980.636 2003.261,2979.686 2004.481,2979.006C2005.701,2978.326 2007.071,2977.986 2008.591,2977.986C2010.111,2977.986 2011.481,2978.326 2012.701,2979.006C2013.921,2979.686 2014.876,2980.636 2015.566,2981.856C2016.256,2983.076 2016.601,2984.456 2016.601,2985.996C2016.601,2987.536 2016.256,2988.916 2015.566,2990.136C2014.876,2991.356 2013.921,2992.311 2012.701,2993.001C2011.481,2993.691 2010.111,2994.036 2008.591,2994.036ZM2008.591,2992.146C2009.711,2992.146 2010.716,2991.891 2011.606,2991.381C2012.496,2990.871 2013.191,2990.146 2013.691,2989.206C2014.191,2988.266 2014.441,2987.196 2014.441,2985.996C2014.441,2984.796 2014.191,2983.726 2013.691,2982.786C2013.191,2981.846 2012.496,2981.121 2011.606,2980.611C2010.716,2980.101 2009.711,2979.846 2008.591,2979.846C2007.471,2979.846 2006.466,2980.101 2005.576,2980.611C2004.686,2981.121 2003.986,2981.846 2003.476,2982.786C2002.966,2983.726 2002.711,2984.796 2002.711,2985.996C2002.711,2987.196 2002.966,2988.266 2003.476,2989.206C2003.986,2990.146 2004.686,2990.871 2005.576,2991.381C2006.466,2991.891 2007.471,2992.146 2008.591,2992.146Z" style="fill:rgb(31,41,55);fill-rule:nonzero;"/>
                    <path d="M2022.991,2981.196C2023.491,2980.136 2024.236,2979.336 2025.226,2978.796C2026.216,2978.256 2027.441,2977.986 2028.901,2977.986L2028.901,2980.056L2028.391,2980.026C2026.731,2980.026 2025.431,2980.536 2024.491,2981.556C2023.551,2982.576 2023.081,2984.006 2023.081,2985.846L2023.081,2993.886L2020.951,2993.886L2020.951,2978.106L2022.991,2978.106L2022.991,2981.196Z" style="fill:rgb(31,41,55);fill-rule:nonzero;"/>
                    <path d="M2038.591,2985.966L2034.871,2989.386L2034.871,2993.886L2032.741,2993.886L2032.741,2971.626L2034.871,2971.626L2034.871,2986.716L2044.291,2978.106L2046.931,2978.106L2040.181,2984.556L2047.561,2993.886L2044.951,2993.886L2038.591,2985.966Z" style="fill:rgb(31,41,55);fill-rule:nonzero;"/>
                    <path d="M2054.521,2994.036C2053.241,2994.036 2052.016,2993.851 2050.846,2993.481C2049.676,2993.111 2048.761,2992.646 2048.101,2992.086L2049.061,2990.406C2049.721,2990.926 2050.551,2991.351 2051.551,2991.681C2052.551,2992.011 2053.591,2992.176 2054.671,2992.176C2056.111,2992.176 2057.176,2991.951 2057.866,2991.501C2058.556,2991.051 2058.901,2990.416 2058.901,2989.596C2058.901,2989.016 2058.711,2988.561 2058.331,2988.231C2057.951,2987.901 2057.471,2987.651 2056.891,2987.481C2056.311,2987.311 2055.541,2987.146 2054.581,2986.986C2053.301,2986.746 2052.271,2986.501 2051.491,2986.251C2050.711,2986.001 2050.046,2985.576 2049.496,2984.976C2048.946,2984.376 2048.671,2983.546 2048.671,2982.486C2048.671,2981.166 2049.221,2980.086 2050.321,2979.246C2051.421,2978.406 2052.951,2977.986 2054.911,2977.986C2055.931,2977.986 2056.951,2978.121 2057.971,2978.391C2058.991,2978.661 2059.831,2979.016 2060.491,2979.456L2059.561,2981.166C2058.261,2980.266 2056.711,2979.816 2054.911,2979.816C2053.551,2979.816 2052.526,2980.056 2051.836,2980.536C2051.146,2981.016 2050.801,2981.646 2050.801,2982.426C2050.801,2983.026 2050.996,2983.506 2051.386,2983.866C2051.776,2984.226 2052.261,2984.491 2052.841,2984.661C2053.421,2984.831 2054.221,2985.006 2055.241,2985.186C2056.501,2985.426 2057.511,2985.666 2058.271,2985.906C2059.031,2986.146 2059.681,2986.556 2060.221,2987.136C2060.761,2987.716 2061.031,2988.516 2061.031,2989.536C2061.031,2990.916 2060.456,2992.011 2059.306,2992.821C2058.156,2993.631 2056.561,2994.036 2054.521,2994.036Z" style="fill:rgb(31,41,55);fill-rule:nonzero;"/>
                </g>
            </g>
        </g>
    </g>
</svg>
