<svg width="22" height="22" viewBox="0 0 22 22" fill="none" xmlns="http://www.w3.org/2000/svg">
<path d="M8.0768 3.96894C8.0768 3.96894 7.84992 3.4375 7.50342 3.4375C7.16242 3.4375 6.98505 3.59494 6.8668 3.70356C6.74855 3.81219 4.76992 5.43812 4.76992 5.43812C4.76992 5.43812 4.19448 5.94069 4.23848 6.886C4.27561 7.83131 4.46055 9.17675 5.4203 11.0509C6.37317 12.9209 8.75811 15.7781 10.2651 16.7826C10.2651 16.7826 11.6614 17.8537 12.9608 18.2889C13.3382 18.4078 14.0931 18.5625 14.2691 18.5625C14.4479 18.5625 14.7634 18.5625 15.1257 18.2978C15.4942 18.0304 17.5615 16.368 17.5615 16.368C17.5615 16.368 18.0675 15.9108 17.4797 15.3794C16.8892 14.8479 15.0962 13.6661 14.7125 13.3554C14.3282 13.0398 13.781 13.1787 13.5445 13.3925C13.3087 13.6077 12.8872 13.9617 12.8357 14.0064C12.7587 14.0656 12.5476 14.2574 12.3111 14.1618C12.01 14.0429 10.7752 13.3726 9.63055 11.8064C8.49273 10.2417 8.36761 9.73019 8.1978 9.17744C8.169 9.09573 8.1686 9.00669 8.19667 8.92472C8.22474 8.84275 8.27964 8.77265 8.35248 8.72575C8.52298 8.6075 9.15067 8.08431 9.15067 8.08431C9.15067 8.08431 9.55698 7.6835 9.38717 7.21119C9.21736 6.73888 8.0768 3.96894 8.0768 3.96894Z" fill="#9B1C27"/>
</svg>
