<svg width="23" height="20" viewBox="0 0 23 20" fill="none" xmlns="http://www.w3.org/2000/svg">
<path d="M22.2498 3.57924H16.3879V0.747625C16.3879 0.334394 16.0515 0 15.6371 0H7.36344C6.94848 0 6.61269 0.334399 6.61269 0.747625V3.57938L0.750744 3.5792C0.33579 3.5792 0 3.9136 0 4.32682V19.2524C0 19.6651 0.335795 20 0.750744 20H22.2491C22.6635 20 22.9998 19.6651 22.9998 19.2524L23 4.32682C23.0004 3.91359 22.664 3.5792 22.2496 3.5792L22.2498 3.57924ZM8.11418 1.4953H14.8862V3.57924H8.11418V1.4953ZM21.499 5.07472V11.0421H15.4974C15.1841 9.634 13.9228 8.57719 12.4156 8.57719H10.5847C9.07757 8.57719 7.81572 9.63432 7.50291 11.0421H1.50182V5.07472H21.499ZM12.4161 13.3717H10.5852C9.67175 13.3717 8.92848 12.6321 8.92848 11.7219C8.92848 10.8117 9.67175 10.0721 10.5852 10.0721H12.4161C13.3295 10.0721 14.0728 10.8117 14.0728 11.7219C14.0728 12.6319 13.3295 13.3717 12.4161 13.3717ZM1.50186 18.5048V12.5375H7.53798C7.89986 13.8773 9.12665 14.8672 10.5848 14.8672H12.4157C13.8738 14.8672 15.1 13.8773 15.4624 12.5375H21.4986V18.5048H1.50186Z" fill="#9B1C27"/>
</svg>
