<svg width="16" height="21" viewBox="0 0 16 21" fill="none" xmlns="http://www.w3.org/2000/svg">
<path d="M12.9885 0.000366837H5.19552C5.02331 0.000366837 4.8579 0.068597 4.73755 0.191967L0.191349 4.73817C0.0679794 4.85801 0 5.02368 0 5.19589V18.1845C0 19.6166 1.1657 20.7823 2.59778 20.7823H12.9889C14.421 20.7823 15.5867 19.6166 15.5867 18.1845V2.59778C15.5867 1.1657 14.4207 0 12.9889 0L12.9885 0.000366837ZM4.54583 2.2182V4.54631H2.21746L4.54583 2.2182ZM14.2873 18.1845C14.2873 18.9021 13.7059 19.4834 12.9884 19.4834H2.59729C1.87973 19.4834 1.29843 18.9021 1.29843 18.1845V5.84498H5.19507C5.55233 5.84498 5.84463 5.55267 5.84463 5.19542L5.84438 1.29903H12.9884C13.7059 1.29903 14.2872 1.88037 14.2872 2.59789L14.2873 18.1845ZM12.3389 14.9372C12.3389 15.2977 12.0466 15.5867 11.6893 15.5867H3.89627C3.53901 15.5867 3.24672 15.2977 3.24672 14.9372C3.24672 14.5767 3.53902 14.2876 3.89627 14.2876H11.6893C12.0463 14.2879 12.3386 14.5769 12.3386 14.9372H12.3389ZM12.3389 11.6901C12.3389 12.0506 12.0466 12.3397 11.6893 12.3397L3.89627 12.3394C3.53901 12.3394 3.24672 12.0504 3.24672 11.6898C3.24672 11.3293 3.53902 11.0403 3.89627 11.0403H11.6893C12.0463 11.0405 12.3386 11.3296 12.3386 11.6901L12.3389 11.6901ZM12.3389 8.44276C12.3389 8.80002 12.0466 9.09232 11.6893 9.09232H3.89627C3.53901 9.09232 3.24672 8.80001 3.24672 8.44276C3.24672 8.08551 3.53902 7.7932 3.89627 7.7932H11.6893C12.0463 7.79345 12.3386 8.08551 12.3386 8.44276H12.3389Z" fill="#9B1C27"/>
</svg>
