<svg width="16" height="18" viewBox="0 0 16 18" fill="none" xmlns="http://www.w3.org/2000/svg">
<path d="M1.31238 17.251H13.9155C14.2804 17.2505 14.6288 17.1 14.8796 16.8348C15.1245 16.57 15.2494 16.2157 15.2245 15.8557L14.1439 1.20748C14.1182 0.878916 13.9699 0.572261 13.7282 0.348448C13.4865 0.124621 13.1693 0.000251367 12.84 0H2.38826C2.05869 0.000251818 1.74147 0.124628 1.49977 0.348448C1.25807 0.572274 1.10978 0.878929 1.08435 1.20748L0.00346962 15.8557C-0.0227145 16.215 0.10015 16.5692 0.343357 16.8348C0.595382 17.1012 0.945814 17.2518 1.31238 17.251ZM2.0989 1.27889C2.11199 1.12909 2.23787 1.01453 2.38818 1.01503H12.8399C12.9912 1.01428 13.1184 1.12833 13.134 1.27889L14.2098 15.9317C14.2133 16.01 14.1858 16.0865 14.1335 16.1447C14.0761 16.2033 13.9975 16.2363 13.9154 16.2361H1.31227C1.2302 16.2363 1.15165 16.2033 1.09424 16.1447C1.04188 16.0865 1.01468 16.01 1.01821 15.9317L2.0989 1.27889Z" fill="#9B1C27"/>
<path d="M7.58365 9.64024C8.66524 9.64829 9.70557 9.22432 10.4735 8.46223C11.2414 7.70013 11.6731 6.66308 11.6731 5.58124V3.04443C11.6731 2.7642 11.4458 2.53711 11.1656 2.53711C10.8853 2.53711 10.6582 2.7642 10.6582 3.04443V5.58124C10.6582 6.67971 10.0721 7.69485 9.12091 8.24392C8.16945 8.79328 6.9975 8.79328 6.0463 8.24392C5.09485 7.69482 4.50878 6.67965 4.50878 5.58124V3.04443C4.50878 2.7642 4.28168 2.53711 4.00146 2.53711C3.72124 2.53711 3.49414 2.7642 3.49414 3.04443V5.58124C3.49414 6.66308 3.92593 7.70013 4.69381 8.46223C5.46144 9.22432 6.5018 9.64829 7.58365 9.64024Z" fill="#9B1C27"/>
</svg>
